<svg version="1.0" xmlns="http://www.w3.org/2000/svg"
 width="90.000000pt" height="90.000000pt" viewBox="0 0 90.000000 90.000000"
 preserveAspectRatio="xMinYMid meet">

<g transform="translate(0.000000,90.000000) scale(0.100000,-0.100000)"
fill="black" stroke="none">
<path d="M355 804 c-16 -2 -68 -9 -114 -15 -118 -16 -121 -20 -121 -163 0
-140 11 -203 52 -286 39 -80 139 -183 221 -225 l57 -30 58 30 c81 42 181 145
220 225 41 83 52 146 52 286 0 141 -4 146 -115 163 -88 13 -265 22 -310 15z
m159 -235 c35 -42 34 -82 -4 -120 -24 -25 -30 -39 -32 -87 -3 -53 -5 -57 -28
-57 -23 0 -25 4 -28 57 -2 48 -8 62 -32 87 -39 39 -40 84 -3 123 39 40 92 39
127 -3z"/>
</g>
</svg>
