<svg version="1.0" xmlns="http://www.w3.org/2000/svg"
 width="96.000000pt" height="96.000000pt" viewBox="0 0 96.000000 96.000000"
 preserveAspectRatio="xMinYMid meet">

<g transform="translate(0.000000,96.000000) scale(0.100000,-0.100000)"
fill="black" stroke="none">
<path d="M149 811 c-26 -26 -29 -36 -29 -91 0 -55 3 -65 29 -91 26 -26 36 -29
91 -29 55 0 65 3 91 29 26 26 29 36 29 91 0 55 -3 65 -29 91 -26 26 -36 29
-91 29 -55 0 -65 -3 -91 -29z m131 -91 l0 -40 -40 0 -40 0 0 40 0 40 40 0 40
0 0 -40z"/>
<path d="M629 811 c-26 -26 -29 -36 -29 -91 0 -55 3 -65 29 -91 26 -26 36 -29
91 -29 55 0 65 3 91 29 26 26 29 36 29 91 0 55 -3 65 -29 91 -26 26 -36 29
-91 29 -55 0 -65 -3 -91 -29z m131 -91 l0 -40 -40 0 -40 0 0 40 0 40 40 0 40
0 0 -40z"/>
<path d="M440 720 l0 -40 40 0 40 0 0 40 0 40 -40 0 -40 0 0 -40z"/>
<path d="M200 480 l0 -40 40 0 40 0 0 40 0 40 -40 0 -40 0 0 -40z"/>
<path d="M680 480 l0 -40 40 0 40 0 0 40 0 40 -40 0 -40 0 0 -40z"/>
<path d="M149 331 c-26 -26 -29 -36 -29 -91 0 -55 3 -65 29 -91 26 -26 36 -29
91 -29 55 0 65 3 91 29 26 26 29 36 29 91 0 55 -3 65 -29 91 -26 26 -36 29
-91 29 -55 0 -65 -3 -91 -29z m131 -91 l0 -40 -40 0 -40 0 0 40 0 40 40 0 40
0 0 -40z"/>
<path d="M629 331 c-26 -26 -29 -36 -29 -91 0 -55 3 -65 29 -91 26 -26 36 -29
91 -29 55 0 65 3 91 29 26 26 29 36 29 91 0 55 -3 65 -29 91 -26 26 -36 29
-91 29 -55 0 -65 -3 -91 -29z m131 -91 l0 -40 -40 0 -40 0 0 40 0 40 40 0 40
0 0 -40z"/>
<path d="M440 240 l0 -40 40 0 40 0 0 40 0 40 -40 0 -40 0 0 -40z"/>
</g>
</svg>
