<svg version="1.0" xmlns="http://www.w3.org/2000/svg"
 width="100.000000pt" height="100.000000pt" viewBox="0 0 100.000000 100.000000"
 preserveAspectRatio="xMinYMid meet">

<g transform="translate(0.000000,100.000000) scale(0.100000,-0.100000)"
fill="black" stroke="none">
<path d="M400 884 c-243 -65 -366 -333 -256 -558 30 -62 83 -125 123 -148 l30
-17 -5 54 c-9 105 -3 116 144 265 l134 136 -22 22 c-12 12 -20 24 -17 26 8 9
171 48 176 43 6 -6 -27 -150 -38 -169 -6 -9 -12 -8 -27 5 -10 9 -23 17 -28 17
-11 0 -200 -190 -232 -234 -49 -65 -17 -171 62 -210 35 -17 47 -18 108 -8 134
20 246 100 301 212 114 233 -8 500 -258 565 -72 18 -123 18 -195 -1z"/>
</g>
</svg>
