<svg version="1.0" xmlns="http://www.w3.org/2000/svg"
 width="96.000000pt" height="96.000000pt" viewBox="0 0 96.000000 96.000000"
 preserveAspectRatio="xMinYMid meet">

<g transform="translate(0.000000,96.000000) scale(0.100000,-0.100000)"
fill="black" stroke="none">
<path d="M370 890 c-107 -23 -221 -112 -268 -211 -111 -230 29 -503 282 -550
117 -21 235 14 324 96 172 159 172 411 0 570 -88 82 -220 119 -338 95z m50
-60 c0 -5 7 -10 15 -10 13 0 15 -12 14 -60 -1 -33 0 -63 3 -65 9 -10 96 67
108 95 12 29 12 29 44 13 57 -29 58 -32 26 -72 -28 -33 -29 -37 -13 -49 15
-11 14 -15 -14 -45 -16 -17 -33 -40 -36 -49 -4 -10 -11 -18 -17 -18 -5 0 -10
-8 -10 -17 0 -10 -11 -40 -25 -68 -13 -27 -25 -53 -25 -57 0 -17 35 -38 64
-38 42 0 50 -10 72 -88 20 -73 22 -69 -64 -102 -54 -20 -148 -26 -187 -11 -18
7 -16 11 23 50 52 52 58 95 15 112 -16 5 -38 21 -51 35 -18 19 -33 24 -71 24
-35 0 -53 5 -66 20 -10 11 -24 20 -32 20 -9 0 -13 8 -11 23 4 27 55 38 64 13
8 -21 24 -10 24 16 0 26 27 58 49 58 26 0 81 38 81 57 0 22 -29 53 -49 53 -9
0 -27 -9 -41 -20 -14 -11 -31 -20 -37 -20 -18 0 -16 46 3 76 15 22 21 24 60
18 49 -7 56 2 23 32 -15 13 -34 18 -65 17 -24 -1 -44 0 -44 3 0 5 80 46 110
55 36 11 60 10 60 -1z m-215 -410 c20 0 45 -40 45 -71 0 -15 7 -43 16 -64 25
-62 9 -63 -48 -4 -38 38 -62 74 -77 113 -31 83 -28 94 14 57 20 -17 42 -31 50
-31z"/>
</g>
</svg>
