<svg width="666" height="299" viewBox="0 0 666 299" fill="none" xmlns="http://www.w3.org/2000/svg">
<path d="M143.639 254.316C144.298 256.735 147.51 257.115 148.773 254.949C149.164 254.277 149.266 253.477 149.062 252.727C140.601 221.593 139.748 187.926 148.108 154.396C174.208 49.7113 280.231 -13.9935 384.916 12.1073C418.522 20.4864 447.905 37.1019 471.45 59.2656C472.017 59.7989 472.772 60.0853 473.55 60.055C476.053 59.9574 477.226 56.9462 475.403 55.2278C451.164 32.3835 420.901 15.2577 386.282 6.62641C278.571 -20.2292 169.482 45.3178 142.627 153.03C134.666 184.958 134.825 217.007 141.794 247L0 247V250L142.515 250C142.874 251.444 143.249 252.882 143.639 254.316Z" fill="black"/>
<path d="M520.306 271H526.333C528.792 264.286 530.917 257.376 532.685 250.282C541.353 215.52 540.396 180.615 531.503 148.377C530.838 145.964 527.632 145.59 526.372 147.753C525.979 148.426 525.878 149.23 526.085 149.983C534.7 181.285 535.618 215.17 527.205 248.916C525.314 256.498 523.004 263.866 520.306 271Z" fill="black"/>
<path d="M214.343 271C203.337 251.485 196.918 229.353 196.13 206.34C195.954 201.198 188.039 198.75 185.449 203.194L145.932 271H153.559L181.693 222.727C184.049 218.684 190.567 220.163 191.306 224.784C193.909 241.056 199.204 256.662 206.829 271H214.343Z" fill="black"/>
<path d="M450.89 271C457.781 259.742 463.095 247.256 466.458 233.77C484.194 162.635 440.905 90.5902 369.77 72.8542C298.635 55.1182 226.59 98.4068 208.854 169.542C199.887 205.508 206.52 241.706 224.463 271H231.144C212.568 242.454 205.446 206.562 214.335 170.909C231.317 102.8 300.295 61.3539 368.403 78.3351C436.512 95.3164 477.958 164.295 460.977 232.403C457.461 246.506 451.715 259.466 444.209 271H450.89Z" fill="black"/>
<path d="M313.037 96.6915C312.916 96.6615 312.843 96.5387 312.873 96.4186C312.903 96.2985 313.025 96.2248 313.145 96.2547C313.266 96.2847 313.339 96.4074 313.309 96.5275C313.279 96.6476 313.157 96.7214 313.037 96.6915Z" fill="black"/>
<path d="M364.966 102.612C365.249 102.627 365.038 102.529 364.498 102.395C363.957 102.26 363.726 102.247 363.983 102.367C364.24 102.486 364.682 102.597 364.966 102.612Z" fill="black"/>
<path d="M322.591 100.697C322.411 100.652 322.288 100.517 322.318 100.397C322.348 100.277 322.52 100.216 322.7 100.261C322.88 100.306 323.003 100.441 322.973 100.561C322.943 100.681 322.771 100.742 322.591 100.697Z" fill="black"/>
<path fill-rule="evenodd" clip-rule="evenodd" d="M435.097 271C443.535 259.15 449.937 245.55 453.669 230.581C469.644 166.509 430.653 101.618 366.581 85.643C302.509 69.668 237.618 108.658 221.643 172.731C212.848 208.005 220.713 243.528 240.252 271H264.034C264.016 270.887 263.994 270.77 263.969 270.649C263.827 269.966 263.743 269.279 263.782 269.122C263.822 268.964 263.767 268.813 263.661 268.787C263.369 268.714 263.364 266.19 263.65 263.217C263.774 261.92 263.789 258.374 263.673 257.54C263.497 256.263 263.541 255.249 263.853 253.409C264.063 252.168 264.117 250.991 263.995 250.313C263.786 249.162 261.889 245.845 261.364 245.714C261.194 245.672 261.077 245.55 261.104 245.445C261.13 245.338 260.996 245.144 260.806 245.012C260.155 244.562 259.607 244.007 259.648 243.84C259.671 243.748 259.589 243.648 259.467 243.618C258.992 243.499 257.66 241.82 256.608 240.013C255.762 238.56 255.544 237.975 255.665 237.489C255.806 236.922 255.022 234.414 254.602 234.093C254.52 234.03 254.489 233.835 254.532 233.66C254.576 233.485 254.465 233.076 254.286 232.752C254.106 232.429 253.959 231.926 253.959 231.637C253.959 231.347 253.87 231.088 253.763 231.062C253.656 231.035 253.618 230.816 253.678 230.576C253.737 230.336 253.71 230.12 253.616 230.097C253.522 230.074 253.378 229.516 253.294 228.857C253.211 228.198 253.066 227.64 252.973 227.617C252.879 227.594 252.84 227.424 252.886 227.239C252.932 227.055 252.883 226.651 252.778 226.343C252.673 226.034 252.41 225.09 252.194 224.246C251.762 222.56 251.411 221.782 250.684 220.902C250.168 220.279 250.148 219.833 250.633 219.764C250.829 219.736 250.872 219.639 250.759 219.486C250.546 219.199 250.394 217.699 250.525 217.174C250.618 216.802 251.258 216.287 251.54 216.358C251.729 216.405 252.248 216.05 252.731 215.544C253.137 215.118 253.056 214.995 252.307 214.908C252.152 214.89 252.061 214.732 252.105 214.557C252.149 214.381 252.094 214.18 251.982 214.109C251.674 213.913 252.443 210.635 252.854 210.388C253.042 210.275 253.241 210.001 253.296 209.779C253.465 209.102 254.359 208.246 254.786 208.353C255.147 208.443 255.688 207.837 256.608 206.313C256.691 206.175 256.917 206.101 257.11 206.149C257.49 206.243 257.908 206.02 258.481 205.415C258.906 204.967 260.413 199.269 260.276 198.629C260.227 198.402 260.104 197.868 260.001 197.44C259.898 197.011 259.892 196.35 259.986 195.97C260.175 195.215 259.496 193.058 259.034 192.943C258.882 192.905 258.409 193.094 257.983 193.363C257.394 193.734 257.2 194.002 257.173 194.48C257.154 194.826 257.056 195.225 256.957 195.368C256.695 195.741 256.162 195.545 256.103 195.054C256.075 194.824 255.871 194.4 255.649 194.112C255.427 193.824 255.288 193.419 255.34 193.211C255.397 192.982 255.173 192.66 254.769 192.388C254.383 192.129 254.05 191.662 253.973 191.273C253.897 190.887 253.771 190.709 253.674 190.853C253.441 191.201 253.09 191.069 253.19 190.671C253.235 190.489 253.225 190.147 253.167 189.911C252.924 188.925 252.773 187.692 252.854 187.366C252.902 187.174 252.843 186.992 252.723 186.962C252.603 186.932 252.468 187.055 252.423 187.235C252.327 187.62 251.969 187.584 251.839 187.176C251.789 187.02 251.931 186.231 252.155 185.422C252.494 184.193 252.509 183.753 252.243 182.747C252.067 182.086 251.856 181.393 251.772 181.208C251.688 181.023 251.699 180.587 251.797 180.238C251.946 179.705 251.865 179.53 251.293 179.146C250.917 178.894 250.629 178.616 250.651 178.528C250.672 178.44 250.516 178.261 250.303 178.13C249.766 177.799 247.875 174.783 247.962 174.396C248.002 174.222 247.937 173.852 247.819 173.575C247.701 173.298 247.661 172.845 247.73 172.567C247.799 172.29 247.757 172.039 247.637 172.009C247.517 171.979 247.48 171.709 247.555 171.408C247.63 171.108 247.599 170.839 247.487 170.811C247.375 170.784 247.318 170.486 247.362 170.152C247.46 169.39 246.714 168.929 245.733 169.146C245.079 169.29 245.023 169.251 244.402 168.206C244.046 167.606 243.779 167.017 243.809 166.897C243.839 166.777 243.525 165.762 243.112 164.642C242.217 162.217 241.682 159.614 241.898 158.745C241.984 158.401 241.971 158.033 241.87 157.929C241.664 157.718 242.262 155.063 242.555 154.887C243.353 154.408 243.827 153.115 245.352 147.273C246.328 143.531 247.055 141.1 247.268 140.865C247.456 140.657 247.807 139.696 248.048 138.73C248.383 137.389 248.701 136.663 249.394 135.659C249.893 134.936 250.36 134.111 250.431 133.825C250.502 133.539 250.659 133.329 250.779 133.359C250.899 133.389 251.06 133.161 251.137 132.852C251.238 132.447 251.172 132.285 250.901 132.271C250.694 132.261 250.419 132.382 250.29 132.542C250.161 132.701 249.887 133.022 249.681 133.256C249.475 133.49 249.259 133.874 249.201 134.109C249.142 134.343 248.981 134.572 248.842 134.616C248.703 134.66 248.518 134.985 248.43 135.339C248.342 135.692 248.172 135.957 248.051 135.927L248.047 135.926C247.984 135.91 247.936 135.898 247.909 135.867C247.822 135.77 247.949 135.483 248.481 134.282L248.481 134.281L248.491 134.258C248.813 133.53 249.165 132.957 249.273 132.984C249.381 133.011 249.543 132.737 249.633 132.374C249.723 132.013 249.928 131.568 250.088 131.386C250.848 130.524 252.227 128.406 252.522 127.647C253.321 125.594 253.913 124.432 254.62 123.529C255.038 122.997 255.744 122.101 256.188 121.538C256.633 120.976 257.02 120.42 257.05 120.303C257.079 120.186 257.179 120.11 257.273 120.133C257.367 120.157 257.756 119.732 258.139 119.189C258.522 118.647 258.912 118.222 259.005 118.246C259.099 118.269 259.225 118.091 259.284 117.851C259.344 117.611 259.492 117.439 259.612 117.469C259.732 117.499 259.861 117.399 259.899 117.248C259.917 117.174 260.095 116.962 260.349 116.694C261.065 116.043 261.789 115.402 262.521 114.771C262.837 114.532 263.5 113.997 264.219 113.398C265.161 112.613 266.586 111.583 267.384 111.109C268.181 110.636 268.848 110.194 268.864 110.128C268.881 110.062 269.048 109.913 269.236 109.798C269.425 109.683 270.026 109.259 270.573 108.858C271.119 108.456 271.797 107.96 272.078 107.755C272.483 107.46 272.613 107.453 272.699 107.722C272.781 107.98 272.941 107.935 273.36 107.532C273.663 107.24 274.132 106.869 274.402 106.708C274.998 106.353 275.143 105.932 274.65 105.993C274.453 106.017 274.315 105.942 274.344 105.826L274.345 105.823L274.547 105.689L274.64 105.628C274.661 105.617 274.684 105.602 274.709 105.583C285.855 98.2842 298.249 92.9219 311.336 89.8303C311.257 90.0139 311.097 90.2514 310.908 90.4528C310.518 90.8678 310.456 91.0353 310.646 91.1609C310.993 91.3895 310.764 92.1422 310.255 92.448C309.966 92.6221 309.826 92.9149 309.813 93.3745C309.794 94.0549 309.254 94.6945 308.957 94.3895C308.757 94.1845 308.2 94.8176 308.239 95.2053C308.255 95.369 308.495 95.5591 308.771 95.628C309.108 95.712 309.276 95.9254 309.28 96.2768L309.287 96.8004L309.755 96.3951C310.081 96.1127 310.443 96.0449 310.951 96.1715C311.783 96.3789 311.981 96.9278 311.359 97.3014C311.023 97.5035 310.982 97.6344 311.12 98.0602C311.212 98.3433 311.369 98.5952 311.468 98.62C311.568 98.6449 311.751 98.8336 311.875 99.0396C312.11 99.4319 313.233 99.6237 313.317 99.2859C313.344 99.18 313.562 99.1421 313.802 99.202C314.042 99.2618 314.267 99.1988 314.301 99.0619C314.4 98.6644 315.219 98.4107 315.889 98.5699C316.426 98.6973 316.471 98.7734 316.233 99.1593C315.866 99.7564 315.338 100.049 314.849 99.927C314.627 99.8716 314.218 99.9882 313.94 100.186C313.399 100.57 313.408 100.998 313.95 100.673C314.127 100.566 314.573 100.552 314.939 100.642C315.713 100.83 316.062 100.737 316.391 100.253C316.521 100.062 316.786 99.9458 316.979 99.994C317.258 100.064 317.335 99.9354 317.351 99.3748C317.367 98.7815 317.449 98.667 317.858 98.6623C318.126 98.6592 318.368 98.5669 318.395 98.4568C318.422 98.3468 319.185 98.116 320.089 97.9436C320.992 97.7714 321.937 97.4883 322.186 97.3144C322.436 97.1406 322.743 97.024 322.869 97.0554C322.995 97.0868 323.159 97.0166 323.234 96.8993C323.443 96.5695 325.155 96.8395 325.641 97.279C326.31 97.8853 325.535 98.1824 323.984 97.9135C323.27 97.7898 322.559 97.765 322.403 97.8584C322.247 97.9519 321.943 97.9843 321.727 97.9304C321.511 97.8765 321.302 97.9602 321.263 98.1163C321.154 98.5529 319.58 99.9465 319.28 99.8718C318.878 99.7717 318.56 100.183 318.828 100.457C318.959 100.592 318.959 100.888 318.828 101.127C318.672 101.413 318.696 101.582 318.901 101.633C319.459 101.772 319.014 102.465 318.192 102.735C317.246 103.046 316.832 103.669 317.467 103.827C317.697 103.884 318.113 103.779 318.39 103.593C318.667 103.407 319.118 103.311 319.391 103.379C319.664 103.447 320.071 103.392 320.296 103.257C320.521 103.121 320.789 103.032 320.891 103.057C320.994 103.083 321.268 102.942 321.501 102.745C321.734 102.548 322.035 102.414 322.17 102.448C322.465 102.522 323.633 103.497 323.597 103.641C323.519 103.952 322.55 104.63 322.28 104.563C321.833 104.452 321.202 104.875 321.079 105.368C320.939 105.929 320.09 106.106 318.754 105.854C317.838 105.681 317.577 105.724 317.245 106.108L316.843 106.571L316.966 106.063C317.034 105.784 316.97 105.358 316.825 105.116C316.583 104.713 316.523 104.708 316.086 105.06C315.824 105.27 315.274 105.426 314.865 105.406C314.455 105.386 314.098 105.456 314.072 105.561C314.046 105.666 313.888 105.718 313.722 105.677C313.556 105.635 313.101 105.678 312.713 105.772C312.324 105.865 311.84 105.901 311.636 105.851C311.433 105.801 311.181 105.844 311.077 105.945C310.973 106.047 310.522 106.039 310.076 105.927C309.522 105.789 309.103 105.839 308.759 106.084C308.396 106.342 308.113 106.368 307.756 106.178C307.473 106.027 307.234 106.008 307.203 106.135C307.172 106.257 306.902 106.296 306.602 106.221C306.301 106.146 306.031 106.183 306.001 106.303C305.971 106.423 305.803 106.486 305.627 106.442C305.451 106.398 304.806 106.498 304.193 106.664C303.569 106.834 302.726 106.878 302.277 106.766C301.532 106.581 301.472 106.609 301.442 107.156C301.419 107.574 301.22 107.86 300.761 108.136C300.085 108.542 299.843 108.943 300.217 109.036C300.605 109.133 300.262 109.846 299.497 110.53C298.523 111.401 298.393 111.885 299.133 111.883C299.825 111.882 300.585 113.129 300.391 113.948C300.245 114.562 300.79 115.704 301.843 116.992C302.228 117.463 302.587 117.961 302.641 118.098C302.741 118.353 301.516 119.798 301.255 119.733C300.971 119.662 300.323 120.704 300.103 121.586C299.979 122.082 299.914 122.838 299.958 123.265C300.029 123.958 300.11 124.044 300.712 124.072C301.759 124.122 302.914 123.335 303.144 122.416C303.249 121.991 303.419 121.664 303.52 121.69C303.621 121.715 303.932 121.349 304.211 120.876C304.86 119.775 305.279 119.436 305.427 119.893C305.506 120.137 305.646 120.184 305.98 120.08C306.227 120.004 306.94 119.921 307.565 119.896C309.737 119.81 311.132 118.459 311.083 116.49C311.065 115.772 311.134 115.612 311.535 115.44C311.795 115.329 312.086 115.254 312.182 115.274C312.68 115.377 313.999 114.229 314.17 113.543C314.22 113.339 314.483 113.059 314.753 112.92C315.022 112.781 315.415 112.475 315.626 112.24C315.925 111.908 316.199 111.861 316.875 112.03C317.351 112.148 317.716 112.344 317.686 112.464C317.656 112.584 317.873 112.742 318.167 112.816C319.307 113.1 320.457 114.373 320.266 115.139C320.14 115.646 320.445 116.167 320.94 116.291C321.582 116.451 321.512 116.85 320.717 117.561C319.882 118.308 319.395 119.617 319.905 119.744C320.072 119.786 320.229 119.981 320.253 120.179C320.302 120.578 321.587 121.003 321.676 120.649C321.706 120.529 321.955 120.487 322.229 120.556C322.522 120.628 323.263 120.379 324.019 119.954C324.728 119.555 325.377 119.298 325.46 119.383C325.62 119.547 325.617 120.596 325.453 121.707C325.323 122.587 325.397 123.433 325.609 123.486C325.702 123.509 325.625 124.185 325.437 124.988C325.211 125.956 325.177 126.598 325.335 126.895C325.466 127.14 325.556 127.414 325.533 127.503C325.461 127.795 325.889 128.32 326.866 129.137C327.763 129.887 327.785 129.935 327.206 129.865C326.496 129.78 326.263 130.144 326.922 130.308C327.162 130.368 327.336 130.505 327.309 130.614C327.282 130.722 327.563 131.108 327.933 131.472C328.519 132.049 328.567 132.206 328.311 132.691C328.149 132.998 327.904 133.483 327.766 133.769C327.476 134.372 326.547 134.622 325.534 134.369C325.147 134.273 324.462 134.276 324.012 134.377C322.505 134.714 322.347 134.734 321.954 134.636C321.739 134.583 321.329 134.629 321.044 134.738C320.482 134.954 318.205 134.232 316.117 133.176C314.446 132.331 313.056 131.882 312.726 132.08C312.561 132.179 312.248 132.216 312.032 132.163C311.816 132.109 311.62 132.141 311.597 132.235C311.573 132.329 311.015 132.473 310.357 132.557C309.698 132.64 309.14 132.785 309.117 132.878C309.094 132.972 308.878 133 308.638 132.94C308.397 132.88 308.182 132.904 308.158 132.994C308.134 133.084 307.625 133.241 307.027 133.344C306.429 133.447 305.92 133.607 305.897 133.7C305.873 133.793 305.749 133.843 305.621 133.811C305.309 133.734 304.517 134.219 304.635 134.415C304.736 134.584 306.57 134.065 306.757 133.815C306.821 133.73 307.012 133.694 307.183 133.737C307.353 133.779 307.512 133.734 307.536 133.635C307.561 133.537 308.472 133.547 309.56 133.657C313.315 134.038 313.634 134.104 313.901 134.549C314.093 134.869 314.078 134.993 313.835 135.092C312.964 135.446 312.146 135.49 311.564 135.215C310.733 134.822 310.516 135.418 311.335 135.844C312.156 136.27 312.225 136.381 311.824 136.622C311.431 136.858 311.119 138.43 311.449 138.512C311.556 138.538 311.617 138.666 311.585 138.794C311.49 139.176 311.962 139.799 312.434 139.917C312.676 139.978 312.91 140.14 312.954 140.279C313.156 140.912 314.308 140.837 315.535 140.111C316.218 139.707 316.826 139.389 316.885 139.403C316.945 139.418 316.944 139.628 316.883 139.87C316.823 140.112 316.845 140.53 316.933 140.8C317.142 141.446 316.94 141.535 315.653 141.362C314.963 141.27 314.437 141.337 314.19 141.55C313.97 141.739 313.538 141.816 313.189 141.729C312.85 141.645 312.141 141.617 311.612 141.667C311.084 141.717 310.461 141.655 310.229 141.528C309.954 141.378 309.729 141.409 309.584 141.616C309.461 141.791 309.232 141.902 309.075 141.863C308.917 141.824 308.735 141.868 308.669 141.961C308.604 142.054 308.163 142.105 307.69 142.076C307.012 142.033 306.821 141.941 306.784 141.635C306.715 141.076 307.392 140.425 308.14 140.33C309.707 140.132 310.326 140.139 310.396 140.357C310.512 140.72 310.872 140.723 310.962 140.362C311.007 140.182 310.896 139.998 310.716 139.953C310.536 139.908 310.413 139.773 310.443 139.653C310.473 139.533 310.252 139.373 309.952 139.298C309.651 139.223 309.381 139.26 309.351 139.381C309.321 139.501 309.149 139.562 308.969 139.517C308.789 139.472 308.666 139.337 308.696 139.217C308.782 138.873 308.105 138.8 307.874 139.128C307.76 139.291 307.54 139.393 307.384 139.354C307.227 139.315 306.677 139.372 306.159 139.48C304.785 139.767 303.676 139.814 303.734 139.584C303.818 139.246 303.302 139.237 301.89 139.549C300.322 139.896 299.894 140.101 299.78 140.559C299.734 140.741 299.592 140.923 299.464 140.964C299.322 141.01 299.241 141.33 299.256 141.784C299.275 142.32 299.195 142.559 298.969 142.634C298.483 142.796 298.321 142.695 298.548 142.37C298.662 142.207 298.647 142.047 298.514 142.014C298.381 141.98 298.248 142.052 298.218 142.172C298.186 142.3 297.399 142.2 296.307 141.927C294.637 141.511 293.929 141.559 294.597 142.043C294.732 142.141 294.568 142.161 294.232 142.087C293.804 141.993 293.526 142.092 293.301 142.415C292.876 143.025 291.188 144.031 291.162 143.69C291.15 143.543 290.953 143.376 290.722 143.318C290.395 143.237 290.265 143.37 290.125 143.93C289.942 144.664 289.339 145.33 288.415 145.816C287.608 146.242 287.455 146.066 288.228 145.602C288.5 145.438 288.751 144.987 288.884 144.422C289.002 143.919 289.23 143.411 289.39 143.293C289.55 143.175 289.639 142.945 289.587 142.782C289.475 142.434 288.715 143.157 288.55 143.77C288.492 143.983 288.281 144.177 288.079 144.202C287.85 144.23 287.723 144.41 287.741 144.685C287.756 144.927 287.634 145.266 287.47 145.441C287.304 145.618 287.183 146.045 287.196 146.411C287.23 147.386 286.854 147.921 286.242 147.768C285.956 147.697 285.697 147.737 285.667 147.857C285.637 147.977 285.768 148.114 285.958 148.161C286.48 148.292 286.073 148.737 285.43 148.74C285.12 148.741 284.861 148.836 284.853 148.95C284.846 149.065 284.836 149.314 284.831 149.504C284.825 149.737 284.642 149.811 284.272 149.73C283.513 149.566 282.669 149.648 282.608 149.893C282.58 150.005 282.209 150.01 281.783 149.904C281.26 149.774 280.774 149.84 280.285 150.11C279.886 150.33 278.953 150.638 278.211 150.795C276.868 151.078 275.398 151.876 275.262 152.395C275.222 152.545 275.116 152.649 275.025 152.626C274.676 152.539 273.862 154.27 273.392 156.1C272.382 160.028 271.388 162.222 270.176 163.192C269.752 163.532 269.392 162.898 269.58 162.142C269.667 161.797 269.65 161.492 269.544 161.466C269.438 161.439 269.448 160.789 269.566 160.021C269.684 159.254 269.797 158.282 269.817 157.861C269.837 157.432 270.017 156.893 270.23 156.631C270.437 156.374 270.795 155.933 271.025 155.65C271.359 155.239 271.393 155.105 271.193 154.977C271.056 154.889 271.017 154.505 271.108 154.124C271.199 153.742 271.177 153.204 271.059 152.928C270.854 152.448 270.807 152.433 269.989 152.599C269.183 152.763 269.138 152.751 269.22 152.393C269.353 151.818 269.029 151.284 268.116 150.574C267.662 150.22 267.317 149.823 267.35 149.691C267.386 149.549 267.031 149.374 266.472 149.26L266.063 149.176C265.102 148.979 264.785 148.914 264.755 148.981C264.74 149.013 264.793 149.078 264.872 149.173L264.913 149.224L264.939 149.256C265.207 149.589 265.189 149.647 264.715 150.004C264.387 150.252 263.961 150.331 263.533 150.225C262.962 150.082 262.864 149.948 262.859 149.303C262.855 148.749 262.716 148.492 262.339 148.339C262.056 148.224 261.78 147.973 261.726 147.78C261.601 147.333 260.49 147.053 259.643 147.255C259.283 147.341 258.662 147.465 258.263 147.531C257.267 147.695 255.598 148.826 254.85 149.843C254.508 150.307 254.155 150.669 254.065 150.647C253.975 150.625 253.864 150.756 253.818 150.939C253.773 151.121 253.393 151.598 252.974 151.999C252.555 152.4 252.18 152.858 252.14 153.016C252.101 153.175 251.958 153.376 251.822 153.463C251.206 153.86 250.092 156.689 249.122 160.317L248.105 164.123L248.473 165.2C248.79 166.13 248.944 166.304 249.604 166.468C250.025 166.573 250.598 166.586 250.877 166.496C251.289 166.363 251.407 166.397 251.495 166.671C251.586 166.954 251.694 166.981 252.143 166.835C252.439 166.739 252.713 166.536 252.75 166.385C252.788 166.234 252.917 166.134 253.037 166.164C253.157 166.194 253.305 166.022 253.365 165.782C253.424 165.542 253.561 165.367 253.668 165.394C253.775 165.421 253.984 165.216 254.131 164.939C254.279 164.663 254.694 164.244 255.053 164.009C255.601 163.651 255.9 163.631 256.921 163.885C257.71 164.082 258.222 164.332 258.382 164.597C258.517 164.823 258.831 165.057 259.08 165.12C259.687 165.271 259.535 165.726 258.692 166.277C258.311 166.526 257.976 166.823 257.947 166.937C257.919 167.051 257.809 167.122 257.703 167.096C257.504 167.046 257.074 167.632 256.767 168.37C256.402 169.248 255.837 169.868 255.571 169.682C255.308 169.497 254.461 170.939 253.909 172.515C253.769 172.916 253.5 173.176 253.166 173.235C252.878 173.286 252.62 173.418 252.593 173.528C252.497 173.912 253.014 174.509 253.56 174.645C253.862 174.72 254.145 174.895 254.189 175.034C254.233 175.173 254.65 175.381 255.116 175.497C255.581 175.613 256.207 175.878 256.506 176.086C257.087 176.491 257.994 177.913 257.903 178.278C257.873 178.399 257.947 178.522 258.067 178.552C258.187 178.582 258.188 178.994 258.07 179.467C257.952 179.941 257.742 180.364 257.604 180.409C257.465 180.453 257.294 180.721 257.223 181.004C257.153 181.287 256.999 181.53 256.881 181.543C256.764 181.556 256.498 182.099 256.291 182.749C256.083 183.399 255.759 184.03 255.569 184.151C255.379 184.272 255.12 184.789 254.993 185.299C254.721 186.391 254.778 188.634 255.079 188.71C255.195 188.738 255.263 188.867 255.231 188.996C255.199 189.125 255.287 189.421 255.427 189.654C255.567 189.887 255.6 190.279 255.5 190.525C255.36 190.868 255.493 191.111 256.063 191.563C256.85 192.187 257.603 192.306 258.596 191.966C259.162 191.772 260.022 192.107 259.927 192.485C259.9 192.597 260.024 192.726 260.204 192.771C260.518 192.849 261.109 193.645 261.181 194.087C261.29 194.763 261.87 196.43 262.008 196.466C262.098 196.49 262.218 196.323 262.275 196.095C262.39 195.634 263.669 194.733 264.314 194.658C264.601 194.625 264.791 194.374 264.92 193.857C265.179 192.821 265.472 192.46 265.959 192.582C266.186 192.639 266.397 192.587 266.427 192.467C266.518 192.099 266.887 192.324 266.865 192.733C266.845 193.093 266.873 193.1 267.302 192.842C267.554 192.691 268.009 192.629 268.314 192.705C268.974 192.87 270.505 192.602 271.182 192.202C271.788 191.846 272.57 192.015 272.454 192.478C272.356 192.87 271.703 193.318 271.355 193.231C271.061 193.158 270.887 193.825 270.986 194.653C271.039 195.092 270.875 195.699 270.453 196.628C269.759 198.153 269.84 198.797 270.662 198.303C271.176 197.994 271.6 196.628 271.325 196.17C271.226 196.005 271.199 195.653 271.265 195.389C271.397 194.858 272.398 194.651 273.502 194.926C273.844 195.012 274.149 194.983 274.179 194.863C274.209 194.743 274.43 194.694 274.67 194.754C274.91 194.814 275.082 194.961 275.052 195.081C275.023 195.201 275.13 195.332 275.292 195.373C275.756 195.488 276.334 196.453 276.218 196.918C276.033 197.661 276.437 197.978 278.1 198.393C279.362 198.707 279.678 198.857 279.614 199.113C279.57 199.291 279.889 199.746 280.323 200.124C280.962 200.68 281.225 200.79 281.697 200.703C282.019 200.643 282.465 200.641 282.69 200.697C282.914 200.753 283.155 200.71 283.224 200.602C283.3 200.484 283.803 200.576 284.475 200.831C285.194 201.104 285.504 201.314 285.337 201.415C284.979 201.63 285.838 203.105 286.403 203.246C286.965 203.386 287.685 204.883 287.516 205.559C287.415 205.964 287.562 206.205 288.174 206.641C288.608 206.95 288.942 207.285 288.916 207.387C288.891 207.489 288.98 207.6 289.114 207.633C289.499 207.729 290.641 209.773 290.538 210.183C290.454 210.52 291.576 212.654 291.876 212.729C291.946 212.747 292.207 213.073 292.456 213.454C292.871 214.088 293.077 214.189 294.918 214.647C296.023 214.923 296.963 215.262 297.008 215.4C297.052 215.539 297.279 215.7 297.512 215.758C297.745 215.816 297.914 215.951 297.888 216.058C297.861 216.165 298.167 216.402 298.568 216.586C298.968 216.77 299.273 217.014 299.244 217.128C299.216 217.243 299.34 217.374 299.52 217.419C299.7 217.463 299.829 217.574 299.807 217.664C299.785 217.754 300.133 218.232 300.581 218.727C301.028 219.221 301.366 219.749 301.332 219.9C301.297 220.051 301.362 220.197 301.475 220.226C301.589 220.254 301.875 220.572 302.111 220.933C302.435 221.429 302.485 221.804 302.317 222.478C302.195 222.968 302.179 223.454 302.28 223.558C302.382 223.662 302.417 223.938 302.359 224.17C302.301 224.403 302.503 225.06 302.807 225.63C303.442 226.82 303.337 228.112 302.619 227.933C302.399 227.879 301.892 228.057 301.492 228.329C300.891 228.74 300.818 228.862 301.069 229.038C301.251 229.165 301.284 229.377 301.151 229.568C300.97 229.825 301.047 229.891 301.562 229.917C301.91 229.934 302.399 229.965 302.649 229.987C302.899 230.008 303.184 229.958 303.284 229.875C303.383 229.792 303.728 229.956 304.051 230.24C304.373 230.524 304.839 230.806 305.085 230.868C305.917 231.075 305.219 232.324 303.867 233.046C303.506 233.239 303.262 233.484 303.326 233.59C303.39 233.696 303.47 233.668 303.505 233.528C303.54 233.388 303.716 233.31 303.896 233.355C304.258 233.445 305.286 232.9 305.367 232.575C305.395 232.462 305.66 232.276 305.955 232.163C306.432 231.979 306.655 232.047 307.949 232.772C308.75 233.22 309.864 233.958 310.424 234.412C310.984 234.865 311.52 235.256 311.615 235.279C311.837 235.335 312.488 236.604 312.401 236.81C312.365 236.896 312.279 237.24 312.211 237.574C312.077 238.229 312.459 238.539 312.622 237.908C312.708 237.579 312.742 237.58 312.871 237.912C312.984 238.202 313.065 238.237 313.2 238.052C313.433 237.732 315.589 238.261 315.855 238.704C315.971 238.898 317.047 239.341 318.473 239.784C321.327 240.668 322.05 241.172 323.852 243.532C324.522 244.41 325.196 245.16 325.35 245.199C325.503 245.237 325.607 245.354 325.581 245.458C325.511 245.738 327.27 246.684 327.848 246.677C328.801 246.666 329.847 247.77 329.664 248.594C329.623 248.775 329.667 249.242 329.761 249.63C329.952 250.423 329.609 252.087 329.152 252.587C328.987 252.767 328.733 253.161 328.588 253.462C328.327 254.001 326.54 255.238 326.158 255.143C326.05 255.116 325.936 255.198 325.904 255.327C325.872 255.455 325.116 255.974 324.224 256.48C323.333 256.986 322.579 257.498 322.549 257.619C322.43 258.097 320.845 258.921 320.304 258.786C319.895 258.684 319.678 258.782 319.477 259.16C319.326 259.441 319.116 259.65 319.009 259.623C318.742 259.556 318.504 260.595 318.733 260.83C318.835 260.934 318.774 261.595 318.599 262.298C318.337 263.347 318.071 263.81 317.126 264.861C316.343 265.733 315.862 266.494 315.628 267.232C315.123 268.827 314.732 269.481 313.887 270.145C313.567 270.396 313.166 270.738 312.88 271H409.421C409.451 270.975 409.483 270.951 409.514 270.93C410.343 270.369 410.575 270.164 410.628 269.95C410.66 269.825 410.762 269.742 410.856 269.765C411.161 269.841 412.097 268.005 412.142 267.243C412.269 265.078 412.322 264.853 412.829 264.276C413.47 263.548 413.573 263.154 413.632 261.212C413.658 260.371 413.704 259.063 413.734 258.305C413.79 256.901 413.607 255.996 413.115 255.251C412.964 255.022 412.825 254.596 412.807 254.305C412.789 254.013 412.704 253.757 412.618 253.736C411.89 253.554 412.051 249.952 412.831 248.979C413.025 248.739 413.337 248.345 413.525 248.105C413.712 247.865 413.92 247.368 413.986 247.002C414.051 246.635 414.443 245.517 414.857 244.517C415.423 243.147 415.576 242.568 415.476 242.173C415.403 241.884 415.427 241.567 415.53 241.467C415.632 241.368 415.503 241.233 415.245 241.169C414.958 241.098 414.773 240.87 414.77 240.587C414.764 240.091 414.216 239.846 413.507 240.02C412.304 240.316 411.243 240.403 410.65 240.255C410.127 240.125 409.953 239.929 409.817 239.316C409.723 238.89 409.682 238.394 409.727 238.213C409.855 237.701 408.798 236.313 408.167 236.164C407.857 236.091 407.377 236.128 407.1 236.246C406.823 236.364 406.326 236.394 405.996 236.311C405.665 236.229 405.31 236.245 405.206 236.346C405.102 236.448 404.868 236.494 404.687 236.449C404.506 236.404 403.948 236.63 403.447 236.952C402.945 237.273 402.422 237.508 402.284 237.473C402.014 237.406 399.996 238.018 399.747 238.242C399.664 238.316 399.152 238.483 398.608 238.614C397.884 238.787 397.408 238.761 396.835 238.515C396.404 238.33 396.076 238.081 396.105 237.962C396.14 237.822 396.043 237.8 395.831 237.9C395.65 237.985 394.992 237.919 394.369 237.752C393.402 237.493 392.223 237.542 391.723 237.862C391.647 237.911 391.122 238.03 390.555 238.128C389.989 238.226 389.504 238.389 389.479 238.491C389.454 238.593 389.285 238.64 389.105 238.595C388.925 238.55 388.753 238.611 388.723 238.732C388.561 239.38 386.11 238.01 385.351 236.847C384.867 236.105 384.42 235.613 383.188 234.469C382.987 234.282 382.663 233.879 382.469 233.573C382.275 233.267 381.643 232.752 381.065 232.428C380.156 231.919 380.005 231.733 379.955 231.054C379.922 230.621 379.805 230.245 379.695 230.218C379.584 230.19 379.575 229.839 379.675 229.438C379.886 228.592 379.334 227.134 378.486 226.3C378.178 225.998 377.813 225.532 377.673 225.265C377.533 224.998 377.326 224.756 377.212 224.728C377.098 224.699 376.882 224.228 376.732 223.68C376.539 222.979 376.313 222.648 375.967 222.562C375.189 222.368 374.572 221.065 374.809 220.115C374.92 219.671 375.109 219.332 375.229 219.362C375.349 219.392 375.484 219.269 375.529 219.089C375.574 218.909 375.512 218.737 375.392 218.707C375.272 218.677 375.221 218.463 375.279 218.232C375.337 218 375.186 217.556 374.945 217.245C374.533 216.714 374.474 215.926 374.852 216.021C375.234 216.116 376.104 214.921 376.339 213.978C376.477 213.426 376.676 212.996 376.783 213.023C376.889 213.049 377.205 212.423 377.487 211.633C377.768 210.842 378.118 209.937 378.265 209.623C378.479 209.167 378.451 209.032 378.132 208.952C377.533 208.803 377.359 207.468 377.847 206.763C378.177 206.286 378.176 206.082 377.842 205.301C377.628 204.801 377.332 204.358 377.183 204.316C376.737 204.191 377.187 202.966 377.997 202.103C378.411 201.662 378.92 200.911 379.128 200.435C379.347 199.932 379.915 199.255 380.484 198.819C381.054 198.381 381.524 197.82 381.612 197.471C381.85 196.534 382.777 194.952 383.245 194.686C384.005 194.254 384.678 193.559 384.796 193.083C384.949 192.472 386.15 191.698 386.723 191.842C387.187 191.957 389.839 190.531 389.944 190.11C389.977 189.981 390.077 189.893 390.167 189.915C390.677 190.036 391.693 187.871 391.256 187.594C391.14 187.52 391.193 186.855 391.374 186.114C391.841 184.204 393.105 182.684 394.552 182.294C395.382 182.07 396.067 181.34 396.478 180.24C397.307 178.023 397.475 177.904 398.293 178.953C398.734 179.518 399.477 179.851 399.827 179.64C399.93 179.578 400.727 179.662 401.598 179.827C403.01 180.094 403.831 179.997 403.943 179.55C404.009 179.283 404.758 178.941 405.093 179.025C405.277 179.071 405.6 178.919 405.81 178.687C406.02 178.454 406.324 178.191 406.486 178.101C406.91 177.865 408.567 177.571 408.943 177.665C409.119 177.709 409.288 177.647 409.318 177.527C409.348 177.407 409.505 177.341 409.666 177.382C409.828 177.422 410.31 177.377 410.737 177.282C411.216 177.176 411.739 177.222 412.103 177.403C412.546 177.622 412.881 177.606 413.451 177.336C413.909 177.119 414.552 177.041 415.072 177.139C416.03 177.32 416.733 177.205 417.458 176.749C417.979 176.421 418.514 176.636 418.821 177.296C418.984 177.649 419.031 177.657 419.234 177.367C419.652 176.769 419.879 177.127 419.544 177.858C419.262 178.474 419.287 178.689 419.728 179.404C420.262 180.269 420.214 181.302 419.624 181.657C419.445 181.764 419.317 182.102 419.318 182.465C419.319 182.999 419.41 183.093 419.95 183.119C420.405 183.14 420.622 183.276 420.729 183.605C420.811 183.857 421.188 184.207 421.567 184.383L421.58 184.389C421.877 184.527 422.06 184.612 422.251 184.675C422.561 184.776 422.89 184.817 423.752 184.925L423.776 184.928C425.068 185.09 426.058 185.739 425.911 186.327C425.845 186.593 426.006 186.829 426.379 187.011C426.691 187.164 427.132 187.423 427.358 187.586C427.585 187.749 427.911 187.837 428.085 187.782C428.401 187.681 429.848 188.418 430.074 188.795C430.14 188.905 430.416 189.05 430.686 189.117C431.051 189.208 431.255 189.086 431.473 188.647C431.791 188.005 431.868 186.86 431.598 186.793C431.249 186.706 431.508 185.331 431.997 184.675C432.686 183.749 433.591 183.598 434.295 184.291C434.587 184.579 435.228 184.915 435.72 185.037C436.212 185.16 436.59 185.359 436.56 185.479C436.488 185.77 437.517 186.016 437.771 185.769C437.881 185.662 438.227 185.659 438.54 185.763C440.038 186.261 440.762 186.3 440.865 185.89C441.031 185.222 442.287 184.531 442.781 184.836C443.327 185.171 444.355 184.914 444.481 184.41C444.534 184.196 444.545 183.772 444.505 183.469C444.464 183.166 444.416 182.288 444.398 181.518C444.379 180.748 444.314 179.924 444.253 179.687C444.192 179.451 444.205 179.005 444.282 178.698C444.358 178.39 444.211 177.515 443.955 176.753C443.698 175.991 443.512 175.271 443.542 175.153C443.571 175.035 443.497 174.914 443.377 174.884C443.257 174.855 443.22 174.584 443.294 174.284C443.369 173.984 443.348 173.717 443.246 173.692C442.881 173.601 442.137 174.276 442.001 174.821C441.826 175.524 441.327 175.765 440.814 175.393C440.156 174.916 439.236 174.747 439.151 175.087C439.109 175.258 439.186 175.473 439.322 175.566C439.503 175.69 439.441 175.816 439.089 176.039C438.714 176.277 438.566 176.271 438.411 176.014C438.303 175.833 437.938 175.616 437.602 175.532C437.266 175.449 437.017 175.273 437.05 175.143C437.082 175.013 436.977 174.917 436.815 174.93C436.479 174.956 436.197 174.554 436.125 173.946C436.098 173.716 435.935 173.493 435.765 173.451C435.594 173.408 435.453 173.116 435.453 172.803C435.452 172.186 434.945 171.196 434.344 170.637C434.138 170.446 434 170.041 434.037 169.739C434.093 169.294 434.264 169.168 434.935 169.081C435.813 168.966 436.442 168.182 435.939 167.83C435.475 167.505 435.754 167.203 436.645 167.067C437.118 166.995 437.471 166.827 437.428 166.694C437.386 166.56 437.505 166.09 437.693 165.649C438.154 164.567 438.774 164.451 440.337 165.156C441.497 165.679 441.535 165.68 442.343 165.194C443.067 164.759 443.174 164.596 443.217 163.855C443.281 162.766 442.434 161.308 441.371 160.677C440.917 160.408 440.567 160.105 440.592 160.004C440.617 159.903 440.442 159.771 440.201 159.711C439.961 159.652 439.789 159.504 439.819 159.384C439.849 159.264 439.572 159.091 439.203 158.999C438.552 158.836 437.963 158.21 438.15 157.879C438.358 157.511 438.069 155.932 437.78 155.86C437.569 155.808 437.533 155.53 437.667 154.992C437.836 154.314 437.808 154.228 437.469 154.391C437.251 154.496 437.005 154.858 436.92 155.197C436.836 155.535 436.653 155.848 436.515 155.893C436.376 155.937 436.207 156.195 436.14 156.466C435.995 157.045 436.973 158.718 437.232 158.333C437.495 157.941 437.81 158.14 437.69 158.621C437.63 158.862 437.483 159.034 437.363 159.004C437.242 158.974 437.049 159.317 436.932 159.766L436.72 160.583L436.381 159.884C436.194 159.499 435.856 159.101 435.629 158.998C435.357 158.875 435.258 158.636 435.34 158.295C435.454 157.825 435.366 157.751 434.38 157.478C433.515 157.238 433.295 157.248 433.297 157.526C433.298 157.718 433.28 158.243 433.257 158.694C433.234 159.144 433.268 159.675 433.332 159.872C433.396 160.07 433.378 160.563 433.292 160.968C433.207 161.373 433.217 161.793 433.315 161.902C433.584 162.198 433.658 163.002 433.466 163.541C433.372 163.805 433.401 164.047 433.529 164.079C433.658 164.111 433.711 164.345 433.648 164.6C433.541 165.029 434.414 166.607 434.818 166.716C434.917 166.743 435.104 166.942 435.235 167.16C435.443 167.507 435.41 167.573 434.972 167.683C434.697 167.753 434.423 168.003 434.364 168.238C434.276 168.593 434.106 168.63 433.384 168.45C432.409 168.207 431.145 168.711 431.588 169.166C431.717 169.298 431.719 169.551 431.594 169.73C431.413 169.989 431.29 169.984 430.986 169.709C430.689 169.441 430.588 169.431 430.529 169.666C430.434 170.046 430.954 171.091 431.278 171.172C431.412 171.205 431.522 171.494 431.522 171.813C431.523 172.285 431.657 172.426 432.243 172.572C432.853 172.725 432.972 172.865 433.03 173.499L433.036 173.57C433.085 174.097 433.103 174.295 433.024 174.348C432.976 174.379 432.894 174.359 432.762 174.326L432.732 174.318C432.552 174.273 432.38 174.335 432.35 174.455C432.32 174.575 432.385 174.696 432.494 174.723C432.603 174.75 432.596 174.946 432.48 175.159C432.364 175.373 432.326 175.773 432.395 176.051C432.51 176.505 432.461 176.537 431.891 176.378C431.462 176.258 431.213 176.015 431.114 175.62C431.033 175.3 430.836 175.005 430.676 174.965C430.512 174.924 430.445 174.656 430.522 174.347C430.597 174.047 430.536 173.767 430.387 173.726C430.238 173.685 429.66 172.968 429.102 172.133C428.545 171.297 427.932 170.514 427.739 170.393C427.547 170.271 427.389 169.918 427.388 169.607C427.388 169.296 427.3 169.02 427.193 168.994C427.085 168.967 427.049 168.742 427.111 168.493C427.261 167.891 426.965 167.444 426.01 166.828C425.574 166.547 425.136 166.225 425.036 166.113C424.937 166.001 424.319 165.653 423.664 165.339C423.009 165.025 422.35 164.564 422.199 164.313C422.001 163.984 421.881 163.926 421.768 164.104C421.65 164.291 421.555 164.256 421.379 163.963C421.251 163.75 421.162 163.513 421.181 163.436C421.236 163.217 420.772 162.522 420.532 162.462C420.413 162.432 420.29 162.271 420.257 162.103C420.21 161.86 420.159 161.847 420.002 162.04C419.671 162.449 419.197 162.16 419.196 161.549C419.195 160.942 419.087 160.85 418.463 160.927C418.045 160.978 417.722 161.882 418.015 162.182C418.116 162.286 418.153 162.556 418.097 162.781C417.984 163.235 418.837 164.359 419.402 164.5C419.602 164.55 420.09 165.158 420.487 165.851C421.147 167.005 421.299 167.136 422.284 167.404C423.138 167.636 423.407 167.815 423.582 168.27C423.708 168.6 424.031 168.901 424.339 168.978C424.634 169.052 425.024 169.241 425.206 169.399C425.388 169.557 425.776 169.88 426.068 170.117C426.36 170.354 426.561 170.698 426.515 170.882C426.45 171.142 426.388 171.143 426.235 170.889C426.127 170.709 425.812 170.505 425.536 170.436C425.109 170.33 425.005 170.424 424.847 171.06C424.695 171.671 424.748 171.845 425.134 172.002C425.473 172.139 425.585 172.369 425.527 172.812C425.479 173.178 425.341 173.403 425.188 173.365C424.919 173.298 424.003 171.693 424.069 171.404C424.089 171.314 423.917 171.192 423.685 171.135C423.454 171.077 423.153 170.845 423.018 170.62C422.883 170.395 422.53 170.151 422.234 170.077C421.938 170.003 421.676 169.781 421.652 169.584C421.626 169.37 421.33 169.156 420.921 169.054C420.276 168.893 418.711 167.667 418.641 167.267C418.623 167.167 418.478 167.053 418.317 167.013C417.781 166.879 416.929 165.892 416.61 165.036C416.377 164.409 416.132 164.148 415.668 164.033C415.323 163.947 415.067 163.771 415.099 163.643C415.216 163.172 414.143 163.296 413.948 163.776C413.843 164.035 413.556 164.329 413.31 164.428C413.064 164.528 412.648 164.904 412.385 165.265C411.954 165.855 411.842 165.891 411.263 165.625C409.76 164.936 409.557 164.863 409.167 164.877C408.941 164.886 408.722 165.033 408.679 165.205C408.636 165.377 408.503 165.494 408.383 165.464C408.005 165.37 407.928 166.276 408.262 166.879C408.726 167.718 408.565 168.008 407.214 168.756C406.522 169.139 405.954 169.622 405.889 169.884C405.826 170.136 405.67 170.35 405.541 170.361C405.413 170.371 405.133 170.817 404.92 171.351C404.574 172.216 404.579 172.395 404.973 172.998L405.415 173.674L404.857 174.037C404.232 174.444 404.065 174.841 404.333 175.287C404.465 175.505 404.378 175.595 404.016 175.618C403.742 175.635 403.28 175.922 402.99 176.255C402.331 177.01 402.071 177.103 401.212 176.894C400.078 176.617 398.058 177.106 397.911 177.693C397.867 177.871 397.682 177.878 397.384 177.713C397.132 177.573 396.859 177.441 396.777 177.419C396.696 177.396 396.617 177.191 396.603 176.962C396.588 176.732 396.28 176.275 395.919 175.946C395.377 175.453 395.189 175.382 394.854 175.542C394.283 175.817 392.396 175.492 392.533 175.142C392.97 174.03 392.908 173.465 392.278 172.845C391.776 172.352 391.661 172.06 391.78 171.585C391.865 171.244 392.064 170.888 392.222 170.793C392.545 170.599 392.855 167.623 392.56 167.55C392.468 167.527 392.38 167.042 392.363 166.471C392.347 165.901 392.21 165.349 392.06 165.243C391.709 164.998 391.912 164.14 392.297 164.237C392.457 164.276 392.762 164.117 392.975 163.881C393.34 163.478 393.515 163.488 396.029 164.056C397.496 164.387 398.84 164.589 399.015 164.504C399.19 164.42 399.414 164.387 399.512 164.431C399.61 164.475 400.149 164.613 400.711 164.738C401.463 164.905 401.795 164.874 401.974 164.62C402.315 164.136 402.332 160.709 401.993 160.624C401.843 160.586 401.769 160.361 401.828 160.122C401.898 159.843 401.755 159.593 401.424 159.417C401.143 159.267 400.934 159.056 400.961 158.949C400.988 158.842 400.916 158.731 400.801 158.702C400.686 158.674 400.408 158.343 400.183 157.968C399.802 157.334 399.008 156.944 397.581 156.69C397.284 156.637 396.92 155.622 397.034 155.165C397.058 155.069 397.315 155.049 397.605 155.122C397.895 155.194 398.198 155.151 398.277 155.026C398.382 154.861 398.527 154.907 398.801 155.191C399.113 155.513 399.317 155.56 399.944 155.451C400.847 155.294 400.868 155.251 400.432 154.463C400.248 154.13 400.186 153.808 400.295 153.748C400.404 153.688 400.506 153.772 400.522 153.936C400.568 154.399 401.8 154.614 402.07 154.205C402.196 154.014 402.598 153.699 402.963 153.505C403.487 153.227 403.632 153.011 403.658 152.47C403.689 151.817 404.245 151.21 404.706 151.325C405.003 151.399 406.102 149.495 405.929 149.206C405.725 148.865 405.857 148.365 406.134 148.434C406.254 148.464 406.316 148.636 406.271 148.816C406.226 148.996 406.287 149.168 406.407 149.198C406.528 149.228 406.687 149.007 406.762 148.707C406.837 148.406 406.8 148.136 406.68 148.106C406.228 147.994 406.592 147.623 407.154 147.622C407.477 147.622 407.89 147.457 408.072 147.256C408.287 147.018 408.531 146.968 408.768 147.114C409.446 147.532 409.591 146.653 409.028 145.541C408.74 144.972 408.524 144.432 408.546 144.341C408.569 144.249 408.459 144.143 408.301 144.103C407.932 144.011 407.194 142.689 407.173 142.082C407.163 141.776 407.406 141.442 407.878 141.114C408.539 140.655 408.608 140.65 408.72 141.06C408.787 141.306 408.996 141.765 409.186 142.081C409.408 142.45 409.454 142.866 409.316 143.247C409.133 143.75 409.181 143.859 409.636 143.972C409.931 144.046 410.261 144.291 410.37 144.518C410.544 144.879 410.5 144.893 410.021 144.637C409.719 144.477 409.451 144.433 409.424 144.54C409.352 144.829 410.387 145.783 410.915 145.915C411.167 145.977 411.348 146.127 411.318 146.247C411.217 146.655 411.756 146.591 412.425 146.117C412.791 145.858 413.11 145.572 413.132 145.482C413.155 145.392 413.272 145.343 413.392 145.372C413.512 145.402 413.576 145.563 413.535 145.729C413.437 146.122 414.218 146.545 414.78 146.403C415.021 146.342 415.522 146.029 415.894 145.707C416.934 144.806 417.157 144.706 417.446 145.009C417.589 145.159 417.918 145.336 418.178 145.403C418.592 145.509 418.68 145.404 418.893 144.549C419.101 143.715 419.045 143.411 418.508 142.452C418.162 141.835 417.925 141.146 417.981 140.921C418.037 140.696 417.985 140.487 417.865 140.457C417.745 140.427 417.683 140.255 417.728 140.075C417.832 139.658 418.282 139.767 418.725 140.316C419.622 141.428 420.139 140.436 419.32 139.173C418.761 138.311 417.81 137.886 417.672 138.437C417.627 138.617 417.492 138.74 417.372 138.71C417.073 138.636 417.171 138.352 417.586 138.085C417.862 137.908 417.882 137.83 417.683 137.696C417.348 137.468 417.561 136.714 418.042 136.425C418.256 136.296 418.733 136.266 419.102 136.358C419.72 136.512 419.787 136.467 419.959 135.779C420.061 135.369 420.279 135.019 420.442 135.002C420.606 134.986 420.249 134.881 419.649 134.769C418.958 134.641 418.459 134.672 418.289 134.852C418.142 135.009 417.863 135.234 417.67 135.352C417.477 135.469 417.217 135.713 417.093 135.892C416.956 136.089 416.476 136.188 415.884 136.141C415.343 136.098 414.816 136.144 414.712 136.244C414.592 136.358 414.364 136.28 414.089 136.032C413.705 135.684 413.703 135.628 414.07 135.528C414.297 135.466 414.512 135.297 414.548 135.152C414.607 134.917 413.666 133.39 412.617 132.017C412.355 131.674 412.28 131.194 412.381 130.507C412.463 129.953 412.468 129.065 412.393 128.534C412.25 127.522 411.572 126.54 411.305 126.96C411.226 127.085 411.022 127.153 410.852 127.11C410.336 126.982 410.188 128.195 410.634 128.888C410.987 129.436 410.986 129.7 410.617 131.177C410.36 132.207 410.286 132.9 410.424 132.987C410.546 133.065 410.623 133.22 410.596 133.331C410.568 133.442 410.734 133.892 410.964 134.331C411.256 134.887 411.588 135.182 412.056 135.302C412.426 135.397 412.926 135.728 413.168 136.038C413.409 136.348 413.73 136.634 413.879 136.674C414.049 136.72 414.071 137.067 413.937 137.603C413.818 138.082 413.592 138.477 413.424 138.501C413.227 138.529 413.184 138.625 413.299 138.779C413.395 138.908 413.572 139.456 413.691 139.996C413.81 140.536 414.04 141.18 414.202 141.426C414.611 142.051 414.389 142.754 413.779 142.761C413.368 142.766 413.277 142.885 413.25 143.447C413.228 143.919 413.115 144.14 412.881 144.169C412.495 144.216 411.469 142.852 411.574 142.432C411.612 142.279 411.543 142.128 411.42 142.097C411.155 142.031 409.664 140.46 409.618 140.198C409.6 140.098 409.496 139.994 409.386 139.967C409.276 139.939 408.914 139.493 408.582 138.974C408.019 138.096 407.112 137.311 407.285 137.851C407.327 137.983 407.236 138.185 407.084 138.301C406.931 138.417 406.662 138.806 406.486 139.166C406.31 139.526 406.002 139.841 405.802 139.865C405.104 139.951 403.789 139.218 403.504 138.585C403.351 138.245 403.126 137.942 403.003 137.911C402.691 137.833 400.962 134.798 401.04 134.464C401.075 134.314 401.005 134.166 400.885 134.136C400.765 134.106 400.727 133.842 400.8 133.548C400.873 133.255 401.046 132.979 401.185 132.935C401.323 132.89 401.484 132.663 401.542 132.43C401.6 132.197 401.746 132.031 401.866 132.061C401.987 132.091 402.119 131.98 402.16 131.814C402.201 131.649 402.413 131.428 402.63 131.323C403.115 131.09 403.632 129.254 403.24 129.156C403.036 129.105 403.051 129.047 403.305 128.894C403.825 128.582 403.962 127.679 403.495 127.644C403.276 127.627 403.127 127.466 403.157 127.28C403.188 127.096 403.208 126.84 403.203 126.711C403.198 126.582 403.276 126.028 403.376 125.478C403.476 124.929 403.587 124.307 403.622 124.095C403.658 123.881 403.52 123.683 403.311 123.649C402.593 123.53 402.189 123.325 402.243 123.108C402.273 122.988 402.592 122.963 402.952 123.053C403.646 123.226 403.817 123.07 403.505 122.551C403.283 122.182 403.42 120.85 403.673 120.913C403.769 120.937 403.928 121.093 404.029 121.26C404.129 121.427 404.335 121.524 404.485 121.476C404.795 121.377 405.09 120.429 404.875 120.227C404.797 120.154 404.859 120.162 405.012 120.244C405.216 120.354 405.29 120.237 405.29 119.811C405.289 119.14 405.774 119.121 406.091 119.779C406.333 120.284 406.984 120.035 406.946 119.451C406.924 119.108 406.944 119.108 407.095 119.447C407.226 119.742 407.312 119.778 407.447 119.593C407.546 119.458 407.923 119.422 408.286 119.512C408.791 119.638 408.897 119.748 408.734 119.98C408.427 120.42 408.992 120.719 409.651 120.465C410.006 120.329 410.437 120.355 410.818 120.536C411.151 120.693 411.685 120.755 412.007 120.674C412.367 120.583 412.854 120.654 413.28 120.859C413.66 121.042 414.4 121.349 414.926 121.543C415.452 121.736 416.1 122.069 416.365 122.283C416.862 122.682 417.596 123.861 417.525 124.145C417.434 124.507 416.173 124.726 415.352 124.521C414.867 124.4 414.446 124.4 414.416 124.52C414.386 124.64 414.648 124.81 414.999 124.897C415.643 125.058 416.822 126.016 416.749 126.319C416.728 126.409 416.825 126.512 416.965 126.547C417.106 126.582 417.341 126.79 417.488 127.008C417.877 127.587 419.443 128.079 419.549 127.655C419.599 127.456 419.389 127.237 419.015 127.097C418.676 126.971 418.291 126.687 418.158 126.466C417.947 126.114 417.976 126.096 418.405 126.317C419.109 126.68 419.683 126.445 419.421 125.901C419.311 125.673 419.128 125.463 419.014 125.434C418.746 125.367 418.323 124.664 418.39 124.396C418.418 124.282 418.318 124.02 418.166 123.814C417.917 123.474 417.929 123.423 418.295 123.274C418.652 123.129 418.651 123.042 418.292 122.529C418.069 122.21 417.718 121.849 417.513 121.728C417.307 121.606 417.451 121.614 417.833 121.746C418.215 121.877 418.549 121.897 418.576 121.789C418.638 121.54 418.216 120.828 417.97 120.767C417.867 120.741 417.676 120.354 417.546 119.907C417.416 119.46 417.173 118.895 417.006 118.651C416.983 118.617 416.961 118.574 416.94 118.525C427.783 128.885 436.478 141.261 442.561 154.877C442.556 154.91 442.55 154.942 442.542 154.974C442.484 155.207 442.524 155.42 442.631 155.446C442.738 155.473 442.826 155.743 442.827 156.045C442.827 156.353 443.07 156.776 443.377 157.003C443.415 157.03 443.453 157.064 443.491 157.101C443.512 157.122 443.534 157.144 443.555 157.167C450.3 173.19 453.464 190.837 452.306 208.88L451.918 207.452C451.796 207.003 451.728 206.507 451.767 206.35C451.848 206.029 450.774 203.098 450.508 202.912C450.413 202.846 450.382 202.604 450.44 202.373C450.497 202.143 450.47 201.936 450.379 201.914C450.288 201.891 450.188 201.427 450.156 200.882C450.043 198.939 449.716 197.9 448.657 196.11C448.052 195.089 447.63 194.105 447.692 193.858C447.79 193.463 447.615 192.988 446.663 191.074C446.498 190.744 446.234 190.442 446.076 190.403C445.918 190.363 445.825 190.184 445.87 190.003C445.914 189.823 445.842 189.649 445.709 189.615C445.56 189.578 445.467 189.778 445.468 190.135C445.469 190.943 445.114 190.771 444.735 189.778C444.56 189.32 444.369 188.881 444.311 188.803C444.253 188.725 444.1 188.376 443.971 188.029C443.824 187.633 443.706 187.518 443.655 187.722C443.562 188.095 444.194 189.934 444.436 189.994C444.524 190.016 444.696 190.424 444.818 190.901C444.939 191.378 445.122 191.789 445.223 191.814C445.324 191.839 445.382 191.96 445.351 192.083C445.285 192.348 445.972 194.402 446.182 194.566C446.262 194.628 446.293 194.819 446.25 194.989C446.208 195.159 446.265 195.321 446.377 195.349C446.489 195.377 446.593 195.593 446.607 195.829C446.622 196.066 446.759 196.491 446.911 196.775C447.342 197.58 447.66 198.635 447.575 198.978C447.532 199.15 447.718 199.688 447.988 200.175C448.657 201.379 449.053 202.937 448.968 204.033C448.848 205.591 449.02 206.555 449.64 207.802C450.291 209.11 450.471 210.257 450.288 211.927C450.185 212.865 450.252 213.07 450.818 213.535C451.175 213.828 451.435 214.196 451.396 214.352C451.357 214.509 451.391 214.688 451.471 214.75C451.549 214.812 451.634 215.012 451.714 215.288C451.145 219.996 450.279 224.721 449.101 229.442C445.947 242.092 440.808 253.725 434.099 264.09C434.503 263.153 434.741 262.36 434.617 262.153C434.498 261.956 434.351 262.249 434.136 263.113C433.965 263.798 433.727 264.334 433.607 264.304C433.487 264.274 433.329 264.489 433.256 264.782C433.183 265.076 433.024 265.347 432.904 265.385C432.745 265.436 432.262 266.391 431.844 267.442C431.003 268.647 430.139 269.833 429.255 271H435.097ZM411.902 113.988C411.909 114.005 411.917 114.022 411.926 114.041C412.013 114.222 412.267 114.42 412.531 114.526C412.322 114.346 412.112 114.167 411.902 113.988ZM325.873 89.9341C326.065 90.1349 325.974 90.1687 325.533 90.0615C325.202 89.9809 324.907 90.0133 324.877 90.1334C324.802 90.4359 324.209 90.2595 324.183 89.9272C324.168 89.728 324.01 89.6952 323.586 89.8021C323.117 89.9204 322.988 89.8836 322.895 89.6052C322.833 89.4171 322.798 89.1926 322.817 89.1065C322.869 88.8799 325.563 89.6098 325.873 89.9341ZM328.989 91.1442C329.002 91.3216 328.9 91.383 328.75 91.2876C328.605 91.1957 328.476 90.9807 328.463 90.8102C328.449 90.6328 328.552 90.5713 328.702 90.6667C328.846 90.7584 328.975 90.9734 328.989 91.1442ZM327.504 90.7601C327.436 91.0324 326.768 91.3237 326.653 91.1314C326.494 90.8676 326.92 90.4108 327.248 90.4925C327.415 90.5342 327.531 90.6546 327.504 90.7601ZM319.713 90.3671C319.295 91.1982 318.787 91.6305 318.356 91.5229C318.19 91.4817 318.006 91.6445 317.946 91.8847C317.881 92.1454 317.681 92.2933 317.449 92.2515C317.089 92.1868 317.087 92.1961 317.426 92.3807C317.691 92.5248 317.721 92.6948 317.536 92.9962C317.334 93.3236 317.362 93.4022 317.666 93.3651C318.282 93.2894 318.023 93.6773 317.247 93.9917C316.857 94.1498 316.582 94.3524 316.636 94.4419C316.69 94.5314 317.141 94.3933 317.64 94.1348C318.138 93.8766 318.669 93.6945 318.82 93.7299C318.97 93.7654 319.118 93.6962 319.148 93.5761C319.178 93.456 319.301 93.3822 319.421 93.4121C319.541 93.4421 319.578 93.7123 319.503 94.0125C319.428 94.3128 319.269 94.5341 319.149 94.5042C319.029 94.4743 318.481 94.7029 317.93 95.0122C317.38 95.3214 316.812 95.5452 316.669 95.5095C316.303 95.4183 315.516 96.6518 315.772 96.9148C315.901 97.046 315.831 97.1817 315.57 97.3069C315.248 97.4618 315.055 97.3987 314.562 96.9771C313.809 96.3339 313.604 96.2756 313.504 96.6765C313.461 96.8486 313.628 97.1206 313.875 97.2812C314.281 97.5447 314.247 97.5673 313.527 97.5132C312.525 97.4377 312.411 97.3382 312.576 96.6789C312.7 96.1823 312.63 96.1258 311.564 95.853C310.934 95.6921 310.277 95.3831 310.103 95.1664C309.817 94.8118 309.828 94.7474 310.206 94.5201C310.436 94.3815 310.69 94.0082 310.769 93.6907C310.924 93.0698 311.514 92.5974 311.98 92.7219C312.138 92.764 312.465 93.0521 312.707 93.3619C312.949 93.6717 313.219 93.9457 313.309 93.9708C313.653 94.0674 313.645 93.2296 313.3 92.8718C312.837 92.3927 313.186 91.8576 313.852 92.0238C314.127 92.0922 314.448 92.011 314.565 91.8431C314.683 91.6753 315.19 91.466 315.692 91.3778L316.605 91.2178L315.976 90.9751C315.63 90.8415 315.285 90.8302 315.209 90.95C315.044 91.21 314.289 91.0585 314.189 90.7453C314.08 90.4042 315.415 89.6298 315.902 89.7513C316.141 89.8108 316.421 89.7764 316.526 89.6748C316.63 89.5732 316.996 89.5602 317.339 89.6458C318 89.8106 319.464 89.5028 319.546 89.1819C319.573 89.0773 319.703 89.1388 319.836 89.3187C320.01 89.5564 319.977 89.8433 319.713 90.3671ZM336.881 94.7514C336.705 95.5863 336.514 96.0504 336.364 96.0128C336.208 95.9739 336.191 96.089 336.316 96.3489C336.421 96.5664 336.767 96.7973 337.086 96.862C337.489 96.9437 337.552 96.9178 337.294 96.7776C337.064 96.6525 337.001 96.4624 337.128 96.2802C337.242 96.1178 337.382 95.7965 337.439 95.5661C337.55 95.1217 338.365 95.1511 338.4 95.6005C338.428 95.9654 341.642 96.7281 342.28 96.5214C342.572 96.4266 342.829 96.2742 342.852 96.1829C342.913 95.9392 342.296 95.8296 342.075 96.045C341.726 96.3849 340.28 95.8629 339.996 95.2948C339.698 94.6988 338.692 94.3533 338.147 94.6596C337.858 94.8218 337.824 94.8021 337.97 94.5576C338.069 94.391 338.372 94.2765 338.642 94.303C338.913 94.3299 339.157 94.2601 339.184 94.1483C339.252 93.8762 340.048 94.0892 340.503 94.5015C340.756 94.73 340.887 94.7627 340.926 94.6068C341.013 94.2548 341.639 94.5023 341.943 95.0099C342.201 95.4386 342.229 95.4455 342.381 95.1189C342.648 94.5423 345.54 95.3732 347.289 96.5292C348.055 97.036 348.91 97.5096 349.188 97.5817C349.723 97.7201 350.264 98.396 349.978 98.5678C349.885 98.6234 349.035 98.4762 348.089 98.2403C346.557 97.8584 346.295 97.8551 345.704 98.2103C345.338 98.4303 344.767 98.5485 344.431 98.4736C343.138 98.1856 342.251 98.0814 341.943 98.1813C341.766 98.2386 341.312 98.1753 340.934 98.0409C340.379 97.8433 340.241 97.8727 340.216 98.1928C340.199 98.4108 340.054 98.5726 339.894 98.552C339.452 98.4956 339.18 98.4879 338.79 98.521C336.946 98.6776 336.666 98.654 336.287 98.3108C336.07 98.1143 335.666 97.9417 335.389 97.9272C334.955 97.9043 334.964 97.9244 335.455 98.0743C335.769 98.1699 336.047 98.4248 336.073 98.6411L336.078 98.6783C336.099 98.8467 336.112 98.9498 336.067 99.0081C335.995 99.1004 335.779 99.0805 335.22 99.0291L335.142 99.022C334.565 98.9691 334.25 98.8285 334.125 98.5691C334.026 98.3622 333.624 98.1133 333.233 98.0158C332.465 97.8242 331.183 96.9615 331.05 96.5471C331 96.3896 331.321 96.3791 331.886 96.52C332.503 96.6739 332.928 96.6472 333.187 96.4385C333.544 96.1504 333.597 96.1826 333.929 96.8898C334.23 97.5303 334.363 97.6291 334.768 97.5121C335.199 97.3873 335.209 97.3622 334.869 97.2707C334.66 97.2148 334.513 97.0706 334.543 96.9505C334.573 96.8304 334.714 96.7613 334.857 96.797C335 96.8326 334.97 96.6853 334.79 96.4697C334.487 96.106 334.493 96.0739 334.871 96.0275C335.095 95.9999 335.24 95.857 335.193 95.71C335.136 95.5311 334.905 95.5132 334.496 95.6559C334.16 95.7731 333.91 95.7688 333.94 95.6458C333.971 95.5229 333.75 95.3612 333.45 95.2863C332.793 95.1224 332.85 94.601 333.555 94.3303C333.826 94.2261 334.079 93.944 334.117 93.7034C334.164 93.4016 334.298 93.315 334.549 93.4239C334.748 93.5108 335.22 93.502 335.597 93.4046C335.974 93.3073 336.48 93.2734 336.721 93.3291C337.107 93.4183 337.126 93.5903 336.881 94.7514ZM394.512 108.249C394.598 108.732 394.525 108.801 393.875 108.854C393.38 108.894 393.038 108.812 392.824 108.601C392.649 108.429 392.427 108.336 392.33 108.394C392.015 108.584 392.313 109.035 392.841 109.166C393.56 109.345 393.993 109.683 393.913 110.002C393.876 110.151 394.02 110.619 394.234 111.043C394.447 111.467 394.603 111.888 394.58 111.978C394.507 112.273 393.204 111.816 392.96 111.409C392.828 111.191 392.562 111.031 392.369 111.055C391.976 111.103 391.988 110.686 392.383 110.56C392.777 110.434 392.775 110.078 392.379 109.979C392.182 109.93 391.874 110.012 391.695 110.162C391.461 110.357 391.178 110.344 390.695 110.116C390.325 109.94 390.043 109.711 390.069 109.606C390.095 109.501 389.822 109.341 389.462 109.252C389.101 109.162 388.829 109 388.855 108.893C388.915 108.655 389.51 108.568 390.09 108.712C390.325 108.771 390.796 108.654 391.135 108.451C391.635 108.152 393.722 107.648 394.28 107.693C394.355 107.699 394.459 107.949 394.512 108.249ZM323.786 90.7831C324.004 91.0117 323.991 91.1116 323.721 91.2736C323.353 91.4951 323.085 92.2384 323.35 92.304C323.44 92.3263 323.861 92.1701 324.285 91.9571C325.026 91.5844 325.459 91.5191 325.392 91.7903C325.374 91.8611 325.093 92.0484 324.766 92.2064C324.44 92.3646 324.295 92.5277 324.444 92.5692C324.848 92.6813 324.664 93.0956 324.255 92.9938C324.059 92.9448 323.921 93.042 323.942 93.214C323.969 93.4377 323.784 93.4478 323.262 93.251C322.867 93.102 322.566 92.8926 322.592 92.7858C322.619 92.6788 322.483 92.5519 322.29 92.5038C322.068 92.4483 322.015 92.3076 322.146 92.1201C322.415 91.7365 322.289 91.7151 321.732 92.0499C321.316 92.2998 321.264 92.2868 321.014 91.871C320.765 91.4552 320.788 91.4335 321.338 91.5706C321.968 91.7277 322.133 91.5604 321.835 91.0653C321.578 90.6377 322.013 90.2467 322.304 90.6434C322.465 90.8615 322.624 90.8723 322.882 90.6826C323.296 90.3788 323.412 90.3918 323.786 90.7831ZM339.127 95.3099C339.097 95.4301 338.98 95.5053 338.867 95.4771C338.754 95.4489 338.625 95.3125 338.581 95.1738C338.537 95.0352 338.654 94.96 338.841 95.0067C339.028 95.0533 339.157 95.1898 339.127 95.3099ZM331.935 94.1546C331.948 94.328 331.769 94.4034 331.503 94.3368C331.234 94.27 331.083 94.0824 331.133 93.8799C331.233 93.4785 331.9 93.7071 331.935 94.1546ZM367.604 102.961C368.017 103.096 368.839 103.346 369.43 103.518C370.48 103.822 370.492 103.835 369.922 104.054C369.48 104.223 368.837 104.147 367.266 103.737C365.686 103.326 365.059 103.252 364.63 103.427C364.085 103.649 364.093 103.657 364.872 103.686L364.943 103.688C365.246 103.699 365.443 103.706 365.637 103.735C366.002 103.79 366.356 103.921 367.376 104.3L367.508 104.349C368.651 104.773 368.985 104.82 369.341 104.606C369.957 104.236 370.708 104.465 370.579 104.983C370.522 105.21 370.314 105.416 370.117 105.44C369.92 105.464 369.707 105.687 369.646 105.935C369.547 106.33 369.652 106.314 370.497 105.807C371.276 105.338 371.627 105.269 372.327 105.443C372.804 105.562 373.218 105.561 373.248 105.441C373.278 105.32 373.861 105.365 374.556 105.543L375.81 105.863L375.187 106.164C374.845 106.33 374.305 106.402 373.988 106.325C373.541 106.216 373.473 106.249 373.685 106.472C373.903 106.7 373.89 106.8 373.621 106.962C373.434 107.074 373.228 107.367 373.163 107.612C373.098 107.857 372.853 108.213 372.618 108.402C372.384 108.591 372.145 108.933 372.088 109.162C371.988 109.563 372.019 109.569 372.893 109.309C373.392 109.161 373.841 109.106 373.89 109.187C373.938 109.268 373.863 109.306 373.723 109.271C373.583 109.236 373.42 109.404 373.36 109.644C373.276 109.98 373.396 110.117 373.88 110.238C374.346 110.354 374.512 110.529 374.516 110.908C374.519 111.19 374.465 111.455 374.396 111.497C374.327 111.538 374.299 111.458 374.334 111.318C374.369 111.177 374.25 111.026 374.07 110.981C373.89 110.936 373.767 110.801 373.797 110.681C373.883 110.335 373.361 110.311 372.651 110.627L371.998 110.918L372.65 111.094C373.009 111.191 373.537 111.585 373.823 111.971C374.317 112.634 374.319 112.664 373.853 112.549C373.583 112.483 373.34 112.515 373.313 112.621C373.287 112.727 373.468 112.944 373.715 113.103C373.962 113.263 374.344 113.51 374.564 113.653C374.859 113.846 374.637 113.894 373.705 113.841C372.708 113.784 372.596 113.812 373.167 113.976C373.729 114.137 373.849 114.262 373.715 114.546C373.584 114.826 373.346 114.852 372.684 114.661C372.21 114.524 371.569 114.274 371.259 114.104C370.79 113.848 370.703 113.861 370.742 114.183C370.768 114.396 371.02 114.628 371.302 114.698C371.911 114.85 372.819 115.534 372.754 115.793C372.729 115.894 372.365 115.891 371.944 115.786C371.524 115.681 371.205 115.497 371.234 115.377C371.264 115.257 371.142 115.122 370.961 115.077C370.294 114.911 370.576 115.366 371.54 116.011C372.126 116.402 372.501 116.809 372.454 116.999C372.409 117.177 372.506 117.312 372.669 117.298C372.832 117.284 373.088 117.512 373.239 117.804C373.587 118.481 373.576 118.505 372.981 118.371C372.71 118.31 372.22 118.2 371.893 118.127C371.566 118.055 371.088 117.724 370.831 117.392C370.37 116.798 369.829 116.678 369.998 117.208C370.046 117.358 369.871 117.568 369.609 117.675L369.566 117.692C369.402 117.759 369.293 117.803 369.291 117.85C369.289 117.944 369.708 118.048 370.954 118.361L371.118 118.402C371.989 118.62 372.681 118.88 372.656 118.979C372.631 119.078 371.649 119.354 370.474 119.591C369.299 119.828 368.143 120.071 367.907 120.131C367.671 120.19 367.083 120.141 366.601 120.021C366.119 119.9 365.7 119.9 365.67 120.021C365.64 120.141 365.271 120.153 364.851 120.048C364.417 119.94 364.114 119.748 364.15 119.605C364.185 119.466 363.938 119.513 363.602 119.71C360.872 121.31 360.178 121.668 359.912 121.608C359.745 121.57 359.382 121.636 359.105 121.754C358.39 122.059 357.129 121.715 357.246 121.248C357.33 120.911 357.302 120.904 356.846 121.148C356.577 121.292 356.134 121.354 355.863 121.287C355.544 121.207 355.285 121.316 355.134 121.591C354.95 121.927 354.774 121.965 354.299 121.77C353.723 121.533 353.435 121.675 353.778 122.026C354.084 122.34 353.016 123.645 352.286 123.847C351.193 124.152 350.9 124.371 350.742 125.005C350.616 125.513 350.3 125.833 348.875 126.899C348.72 127.015 348.557 127.259 348.511 127.442C348.466 127.625 348.173 127.775 347.86 127.776C347.148 127.777 345.845 126.973 345.94 126.592C346.009 126.313 345.493 125.999 343.876 125.335C343.407 125.143 343.117 124.89 343.161 124.714C343.201 124.551 343.071 124.269 342.871 124.088C342.499 123.751 342.107 122.429 342.231 121.931C342.269 121.779 342.234 121.604 342.154 121.541C341.907 121.348 341.38 118.803 341.553 118.634C341.642 118.547 341.655 118.078 341.581 117.592C341.506 117.106 341.496 116.505 341.558 116.259C341.707 115.661 342.511 114.478 342.73 114.533C342.826 114.557 342.951 114.392 343.007 114.166C343.144 113.619 344.376 113.424 344.87 113.871C345.295 114.256 345.562 114.178 346.165 113.491C346.549 113.053 346.579 112.927 346.374 112.615C346.052 112.125 345.362 111.478 345.089 111.41C344.665 111.304 344.78 111.724 345.287 112.127C345.776 112.516 345.777 112.541 345.307 112.742C344.297 113.174 343.409 112.554 343.651 111.585C343.747 111.199 343.899 111.113 344.304 111.214C344.594 111.286 344.903 111.233 344.992 111.096C345.117 110.898 345.316 110.955 345.93 111.362C346.358 111.646 346.754 112.006 346.809 112.161C346.872 112.339 346.944 112.308 347.004 112.078C347.056 111.877 347.002 111.55 346.885 111.352C346.768 111.155 346.648 110.79 346.619 110.544C346.575 110.174 346.405 110.076 345.667 109.994C344.799 109.897 344.364 109.559 344.891 109.391C345.063 109.335 345.109 109.157 345.031 108.845C344.869 108.204 344.95 107.99 345.475 107.674C345.828 107.462 345.877 107.349 345.694 107.161C345.529 106.992 345.542 106.895 345.739 106.832C346.153 106.7 346.279 105.914 345.925 105.666C345.756 105.548 345.701 105.332 345.803 105.186C346.09 104.776 344.252 103.315 343.084 103.023C342.545 102.889 341.929 102.62 341.715 102.426C341.415 102.155 341.265 102.131 341.07 102.321C340.655 102.726 340.411 102.055 340.744 101.43C340.925 101.091 341.183 100.926 341.434 100.988C341.654 101.043 341.919 101.005 342.023 100.903C342.127 100.802 342.079 100.685 341.916 100.644C341.416 100.52 340.572 99.7437 340.705 99.5307C340.774 99.4194 341.802 99.5458 343.009 99.8137C345.083 100.274 345.973 100.277 346.773 99.8259C347.065 99.6614 347.048 99.6045 346.677 99.5121C346.429 99.4501 346.247 99.3138 346.273 99.2089C346.339 98.9447 348.034 99.1159 348.659 99.45C349.037 99.6513 349.312 99.628 349.69 99.3623C350.21 98.9974 350.74 98.967 350.655 99.3068C350.63 99.4077 350.827 99.6635 351.093 99.875C351.388 100.109 351.598 100.176 351.631 100.046C351.66 99.9286 351.512 99.7881 351.303 99.734C350.977 99.6497 350.977 99.6163 351.302 99.5052C352.028 99.257 353.077 99.676 353.228 100.275C353.314 100.618 353.429 100.735 353.527 100.581C353.72 100.278 354.682 100.484 354.8 100.854C354.914 101.212 355.412 101.152 355.515 100.769C355.599 100.454 355.772 100.487 356.806 101.018C357.203 101.222 357.485 101.238 357.678 101.069C357.881 100.89 357.888 100.949 357.702 101.275C357.369 101.86 357.867 102.025 358.403 101.508C358.808 101.116 360 101.254 360.146 101.71C360.262 102.076 360.843 102.169 360.926 101.835C361.142 100.969 361.886 101.095 367.604 102.961ZM394.992 110.075C394.902 110.129 394.711 110.09 394.57 109.988C394.413 109.875 394.477 109.836 394.734 109.889C394.967 109.937 395.083 110.02 394.992 110.075ZM396.509 110.757C396.481 110.867 396.326 110.968 396.163 110.981C395.724 111.017 395.131 110.644 395.324 110.455C395.547 110.238 396.573 110.5 396.509 110.757ZM326.074 93.7074C326.029 93.8845 326.115 93.9031 326.382 93.7748C326.666 93.6383 326.762 93.6689 326.795 93.9073C326.831 94.1607 326.888 94.1748 327.109 93.9844C327.328 93.7954 327.414 93.8237 327.563 94.1329C327.713 94.4436 327.613 94.5672 327.03 94.7939C326 95.1946 324.791 95.1306 324.903 94.6813C324.95 94.4918 325.107 94.3659 325.251 94.4019C325.455 94.4527 325.469 94.3943 325.316 94.1398C325.015 93.6378 325.211 93.2322 325.698 93.3535C325.938 93.4134 326.107 93.5727 326.074 93.7074ZM329.662 95.1289C329.62 95.2962 329.72 95.5265 329.883 95.6406C330.251 95.8983 330.167 96.2599 329.587 96.9141L329.137 97.4214L330.227 97.8397C332.774 98.8175 333.107 98.9768 333.258 99.2922C333.373 99.5307 333.294 99.6833 332.978 99.8349C332.469 100.079 329.699 99.3643 329.668 98.9809C329.658 98.8517 329.324 98.6648 328.927 98.5658C328.473 98.4526 328.187 98.2465 328.158 98.0115C328.133 97.8058 328.008 97.6706 327.881 97.7112C327.538 97.8208 327.012 97.3877 327.093 97.0628C327.131 96.9073 327.558 96.6628 328.04 96.5198C328.955 96.2477 329.297 95.723 328.791 95.3684C328.304 95.0276 328.592 94.5391 329.192 94.6886C329.513 94.7687 329.707 94.9501 329.662 95.1289ZM320.649 94.0664C320.602 94.2546 320.371 94.3448 320.104 94.2784C319.717 94.1818 319.699 94.1201 319.994 93.9031C320.189 93.7602 320.434 93.6648 320.539 93.691C320.645 93.7173 320.694 93.8862 320.649 94.0664ZM327.142 95.771C327.338 95.9772 327.299 96.0783 326.936 96.2961C326.417 96.6083 326.292 96.5945 325.92 96.1844C325.684 95.924 325.715 95.8543 326.151 95.6658C326.732 95.4153 326.811 95.4235 327.142 95.771ZM416.186 118.35C416.341 118.672 416.315 118.73 416.049 118.664C415.869 118.619 415.636 118.404 415.531 118.187C415.377 117.865 415.402 117.807 415.668 117.873C415.849 117.918 416.082 118.133 416.186 118.35ZM323.441 95.8954C323.399 96.0618 323.107 96.2902 322.792 96.4032C322.477 96.5161 321.86 96.7918 321.422 97.0158C321.362 97.0461 321.307 97.0745 321.256 97.1008C320.929 97.2693 320.759 97.3567 320.58 97.3849C320.387 97.4154 320.184 97.3773 319.762 97.2985L319.718 97.2904L319.563 97.2616C318.763 97.1146 318.54 96.8561 319.068 96.6876C319.207 96.6433 319.375 96.3921 319.443 96.1294C319.603 95.5057 320.174 94.9885 320.235 95.4127C320.302 95.8872 321.06 95.9561 321.333 95.5125C321.531 95.1899 321.772 95.1581 322.548 95.3516C323.227 95.5209 323.493 95.6832 323.441 95.8954ZM416.871 120.413C417.441 121.261 417.094 121.53 416.395 120.782C416.043 120.406 415.773 120.025 415.794 119.934C415.863 119.636 416.557 119.943 416.871 120.413ZM327.939 99.2474C328.163 99.4859 328.125 99.519 327.735 99.4249C327.471 99.361 327.171 99.392 327.066 99.4936C326.962 99.5952 326.709 99.6424 326.505 99.5983C326.003 99.4906 324.772 100.467 324.829 100.928C324.855 101.142 325.001 101.255 325.179 101.199C325.416 101.123 325.43 101.068 325.241 100.948C324.887 100.723 325.276 100.439 325.77 100.562C326.003 100.62 326.23 100.52 326.275 100.34C326.32 100.16 326.548 100.06 326.781 100.118C327.014 100.176 327.29 100.141 327.394 100.039C327.67 99.7705 329.7 100.322 329.728 100.673C329.74 100.831 329.465 101.133 329.116 101.342C328.466 101.733 328.233 102.009 328.673 101.869C328.809 101.825 329.101 101.954 329.322 102.154C329.614 102.418 329.807 102.469 330.023 102.34C330.396 102.116 331.126 102.282 331.053 102.575C331.023 102.695 331.143 102.83 331.32 102.874C331.562 102.934 331.569 103.11 331.346 103.58C331.1 104.101 331.116 104.198 331.44 104.159C331.654 104.132 331.804 104.213 331.773 104.337C331.742 104.462 331.93 104.651 332.191 104.756C332.569 104.91 332.622 105.066 332.452 105.534C332.263 106.054 332.31 106.136 332.89 106.281C333.247 106.37 333.577 106.556 333.621 106.695C333.665 106.833 333.597 106.921 333.47 106.889C333.343 106.858 333.214 106.93 333.184 107.05C333.154 107.17 333.277 107.305 333.457 107.35C333.638 107.395 333.748 107.581 333.702 107.763C333.643 108.003 333.485 108.024 333.137 107.837C332.707 107.608 332.617 107.667 332.313 108.376C332.062 108.961 332.045 109.241 332.249 109.432C332.401 109.575 332.49 109.835 332.447 110.009C332.4 110.195 332.578 110.378 332.877 110.453C333.196 110.532 333.444 110.81 333.542 111.198C333.628 111.539 333.829 111.85 333.988 111.89C334.148 111.929 334.255 112.06 334.225 112.18C334.195 112.3 334.312 112.434 334.485 112.477C334.658 112.52 334.833 112.659 334.873 112.785C334.997 113.173 334.528 113.648 334.12 113.546C333.907 113.493 333.574 113.566 333.38 113.709C333.185 113.852 332.865 113.929 332.669 113.88C332.472 113.831 332.136 113.96 331.921 114.168L331.531 114.544L330.999 113.922C330.433 113.26 330.406 112.62 330.95 112.756C331.13 112.801 331.303 112.735 331.334 112.609C331.366 112.484 331.263 112.371 331.107 112.358C330.951 112.346 330.58 112.197 330.283 112.028C329.734 111.714 328.334 111.852 328.835 112.171C328.972 112.258 329.03 112.549 328.963 112.818C328.896 113.086 329.017 113.557 329.232 113.863C329.75 114.605 329.453 115.929 328.777 115.89C328.525 115.875 328.207 115.98 328.069 116.122C327.782 116.421 327.159 116.333 327.24 116.006C327.27 115.886 327.089 115.736 326.837 115.674C326.564 115.605 326.378 115.373 326.375 115.094C326.372 114.838 326.289 114.609 326.19 114.584C325.792 114.485 325.703 114.896 325.929 115.788C326.059 116.304 326.066 116.782 325.944 116.851C325.667 117.008 323.938 115.576 323.542 114.862C323.38 114.57 323.114 114.347 322.951 114.367C322.656 114.402 322.067 112.561 322.202 112.024C322.24 111.874 322.172 111.727 322.052 111.697C321.932 111.667 321.871 111.495 321.915 111.315C321.979 111.061 321.709 110.915 320.71 110.667C319.463 110.356 319.201 110.108 319.376 109.405C319.471 109.026 320.945 109.096 321.67 109.514C322.836 110.188 323.782 110.342 323.898 109.877C324 109.466 324.571 109.267 325.803 109.212C326.252 109.192 326.734 108.934 327.135 108.498L327.763 107.815L327.367 107.25C327.149 106.939 327.06 106.597 327.17 106.49C327.279 106.383 327.265 106.27 327.138 106.238C327.011 106.207 326.956 105.984 327.016 105.744C327.076 105.504 327.033 105.284 326.921 105.256C326.809 105.228 326.751 104.935 326.793 104.604C326.875 103.96 326.426 103.458 326.282 104.034C326.18 104.442 325.922 104.418 325.656 103.975C325.551 103.8 325.07 103.575 324.587 103.474C324.104 103.373 323.672 103.177 323.628 103.038C323.583 102.898 323.269 102.567 322.929 102.301C322.59 102.035 322.118 101.561 321.88 101.249C321.468 100.706 321.47 100.665 321.928 100.358C322.192 100.18 322.432 99.9452 322.461 99.8348C322.522 99.6059 324.163 99.0016 324.498 99.0851C324.619 99.1155 324.739 99.0593 324.764 98.9604C324.816 98.7527 326.302 98.6778 327.113 98.8423C327.416 98.9038 327.788 99.0861 327.939 99.2474ZM331.732 101.481C332.091 101.698 331.831 102.537 331.435 102.438C331.255 102.394 331.134 102.248 331.168 102.115C331.205 101.966 330.923 101.833 330.442 101.771C329.632 101.667 329.494 101.358 330.095 100.997C330.378 100.827 330.91 100.984 331.732 101.481ZM333.13 108.196C333.101 108.316 332.978 108.39 332.858 108.36C332.738 108.33 332.664 108.207 332.694 108.087C332.724 107.967 332.846 107.893 332.967 107.923C333.087 107.953 333.16 108.076 333.13 108.196ZM325.938 106.904C326.064 107.3 324.97 107.785 324.318 107.623C323.605 107.445 323.789 106.902 324.633 106.695C325.494 106.484 325.82 106.536 325.938 106.904ZM326.87 107.935C326.78 107.99 326.589 107.951 326.448 107.848C326.291 107.735 326.355 107.696 326.612 107.749C326.845 107.797 326.961 107.881 326.87 107.935ZM316.481 106.133C316.451 106.253 316.254 106.311 316.043 106.263C315.677 106.179 315.674 106.193 315.969 106.56C316.139 106.772 316.243 107.087 316.2 107.26C316.157 107.433 316.212 107.724 316.323 107.908C316.481 108.172 316.444 108.319 316.146 108.607C315.834 108.909 315.826 108.985 316.099 109.053C316.28 109.098 316.404 109.233 316.374 109.353C316.255 109.83 315.297 109.31 315.185 108.709C315.057 108.016 314.713 107.862 313.988 108.171C313.357 108.44 312.177 108.195 312.403 107.841C312.491 107.704 312.437 107.433 312.283 107.239C312.034 106.926 312.053 106.898 312.447 106.99C312.692 107.047 313.083 106.932 313.316 106.735C313.549 106.538 313.848 106.404 313.98 106.437C314.113 106.47 314.514 106.309 314.871 106.079C315.509 105.668 316.588 105.704 316.481 106.133ZM380.581 125.969C380.604 126.151 380.815 126.348 381.051 126.407C381.494 126.517 381.985 127.144 381.899 127.489C381.815 127.827 380.696 128.302 379.565 128.481C378.967 128.575 378.416 128.692 378.34 128.741C378.264 128.789 377.893 128.902 377.516 128.991C376.961 129.122 376.704 129.069 376.176 128.715C375.817 128.474 375.003 128.146 374.366 127.988C373.424 127.753 373.267 127.656 373.523 127.467C373.767 127.288 373.729 127.136 373.354 126.796C372.986 126.464 372.925 126.235 373.1 125.857C373.324 125.371 373.297 125.351 372.185 125.18C371.554 125.083 371.172 124.991 371.335 124.976C371.498 124.96 371.679 124.759 371.736 124.529C371.804 124.256 371.992 124.148 372.277 124.219C372.517 124.279 372.737 124.235 372.765 124.121C372.842 123.816 374.037 124.655 374.086 125.048C374.137 125.465 374.597 125.584 375.067 125.302C375.267 125.181 375.58 125.105 375.763 125.132C377.243 125.352 378.197 125.392 378.6 125.251C379.195 125.044 380.527 125.527 380.581 125.969ZM313.918 109.901C313.888 110.021 313.675 110.072 313.445 110.015C313.214 109.957 312.856 109.931 312.647 109.957C312.399 109.987 312.299 109.883 312.356 109.652C312.42 109.397 312.652 109.353 313.208 109.492C313.629 109.597 313.948 109.781 313.918 109.901ZM314.581 111.726C314.201 111.919 313.969 111.934 313.956 111.766C313.931 111.452 314.818 111.041 315.037 111.265C315.119 111.349 314.914 111.557 314.581 111.726ZM326.832 117.644C326.787 117.824 326.591 117.932 326.396 117.883C326.106 117.811 326.106 117.748 326.395 117.535C326.59 117.392 326.786 117.284 326.831 117.296C326.876 117.307 326.877 117.464 326.832 117.644ZM415.488 140.688C415.467 140.771 415.333 140.68 415.19 140.486C415.047 140.291 414.954 140.039 414.982 139.925C415.01 139.811 415.144 139.902 415.28 140.127C415.415 140.352 415.508 140.604 415.488 140.688ZM273.251 107.416C273.222 107.536 273.099 107.61 272.979 107.58C272.859 107.55 272.785 107.427 272.815 107.307C272.845 107.187 272.967 107.113 273.088 107.143C273.208 107.173 273.281 107.296 273.251 107.416ZM394.686 139.027C394.195 139.723 394.251 139.789 395.531 140.027L396.806 140.264L396.501 141.486C396.213 142.64 396.227 142.716 396.734 142.843C397.076 142.928 397.498 143.37 397.89 144.054C398.23 144.646 398.819 145.331 399.2 145.576C399.955 146.062 401.01 147.562 400.905 148C400.826 148.327 401.173 148.451 401.44 148.191C401.742 147.897 402.247 148.122 402.64 148.728C402.963 149.224 402.956 149.357 402.576 149.906C402.093 150.604 402.112 150.952 402.63 150.889C402.823 150.865 402.953 150.961 402.917 151.103C402.81 151.532 402.106 151.837 401.546 151.697C401.255 151.625 400.653 151.647 400.207 151.746C399.76 151.845 399.115 151.847 398.773 151.751C398.337 151.63 398.003 151.714 397.66 152.031C397.36 152.309 397.055 152.405 396.874 152.278C396.711 152.164 396.354 152.191 396.08 152.338C395.368 152.719 395.34 152.461 396.005 151.644C396.398 151.161 396.823 150.917 397.35 150.872C398.229 150.798 398.478 150.414 397.727 150.29C395.745 149.963 394.498 149.283 395.736 149.205C396.389 149.164 396.507 148.441 395.959 147.847C395.376 147.217 395.437 146.985 396.14 147.16C396.445 147.236 396.766 147.256 396.853 147.204C397.167 147.015 397 145.873 396.629 145.67C396.42 145.556 396.246 145.249 396.243 144.989C396.239 144.638 396.124 144.531 395.802 144.579C395.562 144.614 395.087 144.612 394.746 144.573C394.189 144.51 394.142 144.436 394.288 143.852C394.42 143.32 394.359 143.179 393.952 143.077C393.678 143.009 393.362 142.721 393.249 142.438C393.135 142.154 392.928 141.894 392.788 141.859C392.325 141.744 392.664 138.59 393.157 138.425C393.325 138.369 393.793 138.404 394.197 138.502C394.807 138.652 394.89 138.74 394.686 139.027ZM411.697 143.797C411.636 144.042 411.72 144.334 411.883 144.448C412.315 144.751 412.06 145.562 411.603 145.336C411.405 145.237 411.298 145.044 411.365 144.905C411.433 144.766 411.332 144.544 411.14 144.411C410.489 143.956 410.383 143.608 410.838 143.412C411.468 143.141 411.821 143.3 411.697 143.797ZM391.53 139.096C391.487 139.269 391.338 139.447 391.2 139.491C391.061 139.536 390.998 139.37 391.06 139.122C391.122 138.875 391.27 138.697 391.39 138.727C391.511 138.757 391.573 138.923 391.53 139.096ZM392.374 140.364C392.344 140.484 392.227 140.559 392.114 140.531C392.001 140.503 391.872 140.367 391.828 140.228C391.784 140.089 391.901 140.014 392.088 140.061C392.275 140.108 392.404 140.244 392.374 140.364ZM392.921 142.82C392.891 142.94 392.763 143.013 392.636 142.981C392.508 142.949 392.49 142.84 392.594 142.738C392.698 142.637 392.826 142.565 392.879 142.578C392.933 142.591 392.951 142.7 392.921 142.82ZM301.318 121.365C301.245 121.658 301.116 121.729 300.915 121.588C300.752 121.474 300.652 121.244 300.694 121.076C300.736 120.909 300.917 120.809 301.098 120.854C301.278 120.899 301.377 121.129 301.318 121.365ZM393.3 144.306C393.391 144.584 393.588 144.842 393.739 144.88C394.067 144.962 394.016 145.326 393.66 145.44C393.368 145.533 393.116 146.347 393.36 146.411C393.597 146.472 393.797 147.689 393.656 148.21C393.471 148.895 390.474 149.713 389.649 149.304C389.012 148.988 388.72 148.25 389.216 148.212C389.369 148.2 389.577 147.861 389.677 147.459C389.825 146.867 389.769 146.691 389.385 146.536C389.081 146.412 388.93 146.162 388.964 145.835C388.993 145.555 388.92 145.302 388.801 145.272C388.682 145.243 388.67 145.135 388.774 145.034C388.878 144.932 389.211 144.91 389.512 144.986C389.814 145.061 390.245 145.012 390.47 144.877C390.695 144.741 390.774 144.604 390.645 144.572C390.517 144.54 390.46 144.319 390.519 144.081C390.625 143.659 390.863 143.609 392.23 143.73C392.543 143.758 392.874 143.785 392.967 143.791C393.06 143.797 393.21 144.029 393.3 144.306ZM326.549 135.228C326.581 135.494 326.186 135.833 325.285 136.312L323.975 137.01L324.829 137.074C325.391 137.116 325.662 137.221 325.622 137.381C325.589 137.514 325.438 137.596 325.287 137.562C324.625 137.414 325.77 138.177 326.662 138.478C327.872 138.887 328.154 139.261 327.631 139.766C327.147 140.234 327.131 140.334 327.528 140.433C327.708 140.478 327.831 140.613 327.801 140.733C327.771 140.853 327.635 140.924 327.498 140.89C327.238 140.825 326.516 141.32 326.427 141.624C326.399 141.721 326.588 141.787 326.847 141.771C327.181 141.75 327.293 141.841 327.233 142.084C327.131 142.492 327.473 142.628 327.726 142.28C327.838 142.126 327.888 142.128 327.86 142.285C327.836 142.423 327.638 142.621 327.421 142.726C327.203 142.831 326.991 143.052 326.95 143.217C326.909 143.382 326.679 143.469 326.439 143.409C326.198 143.349 326.026 143.202 326.056 143.082C326.086 142.962 325.963 142.827 325.783 142.782C325.394 142.685 325.423 142.422 325.852 142.165C326.022 142.063 326.137 141.786 326.108 141.551C326.075 141.283 325.977 141.196 325.845 141.319C325.73 141.427 325.396 141.574 325.104 141.645C324.688 141.747 324.564 141.705 324.533 141.45C324.508 141.246 324.275 141.114 323.903 141.093C323.578 141.075 323.338 140.959 323.369 140.836C323.399 140.713 322.922 140.429 322.309 140.205C319.593 139.212 319.212 139.019 319.41 138.735C319.517 138.582 319.801 138.507 320.041 138.567C320.312 138.634 320.464 138.556 320.44 138.362C320.418 138.189 320.733 137.928 321.139 137.782C321.544 137.636 321.894 137.447 321.915 137.361C321.937 137.276 322.417 136.92 322.983 136.569C323.549 136.218 324.273 135.716 324.592 135.453C324.911 135.19 325.296 135.006 325.448 135.043C325.6 135.081 325.748 135.014 325.778 134.894C325.867 134.537 326.497 134.81 326.549 135.228ZM316.389 134.409C316.631 134.719 316.951 135.005 317.101 135.045C317.25 135.085 317.336 135.265 317.291 135.445C317.188 135.856 317.161 135.847 316.213 135.122C315.725 134.748 315.469 134.38 315.529 134.139C315.651 133.648 315.843 133.708 316.389 134.409ZM313.605 139.281C314.126 139.411 314.007 139.762 313.44 139.769C313.138 139.772 312.77 139.454 312.343 138.819L311.701 137.865L312.46 138.525C312.878 138.888 313.394 139.229 313.605 139.281ZM416 167.368C416.07 168.872 415.333 169.058 415.079 167.601C414.976 167.01 415.019 166.841 415.324 166.631C415.875 166.251 415.952 166.335 416 167.368ZM416.907 171.081C417.226 172.444 417.223 172.721 416.889 173.09C416.676 173.326 416.413 173.497 416.304 173.47C415.951 173.382 415.636 172.652 415.752 172.189C415.814 171.94 415.766 171.712 415.646 171.682C415.526 171.652 415.468 171.466 415.517 171.269C415.566 171.072 415.47 170.748 415.304 170.549C415.02 170.208 415.029 170.169 415.464 169.908C415.718 169.756 415.95 169.531 415.981 169.41C416.123 168.839 416.573 169.65 416.907 171.081ZM442.45 177.669C442.322 178.186 442.192 178.3 441.836 178.212C441.468 178.12 441.435 178.015 441.66 177.646C441.889 177.269 442.322 176.96 442.558 177.004C442.589 177.009 442.54 177.309 442.45 177.669ZM425.189 174.339C425.003 175.086 424.749 174.907 424.705 173.998C424.685 173.607 424.767 173.492 425.021 173.555C425.26 173.615 425.311 173.851 425.189 174.339ZM424.252 175.307C424.151 175.712 424.185 176.203 424.328 176.398C424.471 176.592 424.553 176.891 424.51 177.062C424.45 177.302 424.254 177.292 423.651 177.021C423.221 176.827 422.724 176.542 422.548 176.388C422.372 176.233 422.037 176.059 421.803 176C421.57 175.942 421.303 175.738 421.211 175.546C420.976 175.057 421.518 174.77 422.306 174.966C422.647 175.051 423.186 174.977 423.504 174.801C424.311 174.354 424.464 174.457 424.252 175.307ZM409.205 172.211C409.191 172.475 409.054 172.501 408.652 172.315C408.219 172.115 408.18 172.022 408.45 171.824C408.85 171.53 409.231 171.725 409.205 172.211ZM436.038 179.202C435.976 179.449 435.689 179.463 434.864 179.257C434.206 179.093 433.797 178.888 433.833 178.741C433.868 178.6 434.108 178.596 434.4 178.731C434.679 178.86 435.056 178.916 435.239 178.855C435.759 178.682 436.127 178.842 436.038 179.202ZM247.656 137.162C246.305 140.713 245.703 142.075 245.186 142.751C244.603 143.514 243.914 145.234 243.781 146.258C243.707 146.835 243.495 147.454 243.308 147.648C243.037 147.927 243.035 147.724 243.299 146.643C243.481 145.899 243.546 145.204 243.445 145.1C243.343 144.996 243.332 144.622 243.42 144.269C243.508 143.915 243.679 143.651 243.799 143.681C243.919 143.711 244.061 143.558 244.115 143.342C244.169 143.126 244.367 142.856 244.554 142.743C244.783 142.606 245.079 141.8 245.452 140.307C245.953 138.295 246.069 138.036 246.631 137.67C246.974 137.447 247.323 136.988 247.407 136.65C247.491 136.312 247.668 136.063 247.8 136.096C247.957 136.135 247.908 136.5 247.656 137.162ZM264.709 150.982C264.679 151.102 264.55 151.174 264.423 151.143C264.296 151.111 264.277 151.002 264.381 150.9C264.485 150.799 264.614 150.726 264.667 150.739C264.72 150.753 264.739 150.862 264.709 150.982ZM275.742 163.011C275.786 163.15 275.719 163.237 275.591 163.205C275.464 163.174 275.385 163.049 275.415 162.929C275.445 162.809 275.512 162.722 275.565 162.735C275.618 162.748 275.698 162.872 275.742 163.011ZM384.218 190.753C384.158 190.993 384.01 191.165 383.89 191.135C383.77 191.105 383.721 190.884 383.781 190.644C383.841 190.404 383.988 190.232 384.108 190.262C384.228 190.292 384.277 190.513 384.218 190.753ZM379.878 190.483C379.831 190.671 379.599 190.761 379.333 190.695C378.946 190.598 378.928 190.536 379.223 190.319C379.417 190.176 379.663 190.081 379.768 190.107C379.873 190.134 379.923 190.303 379.878 190.483ZM381.27 191.41C381.24 191.53 381.118 191.604 380.998 191.574C380.878 191.544 380.804 191.421 380.834 191.301C380.864 191.181 380.986 191.107 381.107 191.137C381.227 191.167 381.3 191.29 381.27 191.41ZM273.015 166.042C272.833 166.77 272.591 167.328 272.47 167.298C272.35 167.268 272.323 166.955 272.412 166.601C272.5 166.248 272.496 165.882 272.404 165.788C272.221 165.6 272.907 164.629 273.177 164.693C273.268 164.715 273.195 165.322 273.015 166.042ZM266.628 165.61C266.598 165.73 266.77 165.877 267.011 165.937C267.251 165.997 267.425 166.171 267.397 166.323C267.356 166.545 267.381 166.551 267.524 166.355C267.966 165.746 268.909 166.702 269.053 167.905C269.096 168.268 269.289 168.673 269.482 168.803C269.674 168.934 269.995 169.331 270.194 169.684C270.394 170.037 270.658 170.294 270.781 170.255C270.904 170.216 271.005 170.44 271.006 170.754C271.007 171.325 271.684 172.669 272.013 172.751C272.108 172.775 272.626 173.504 273.163 174.372L274.14 175.949L273.174 175.781C272.643 175.688 271.797 175.347 271.293 175.022C270.789 174.697 270.149 174.374 269.87 174.305C269.591 174.235 269.387 174.08 269.417 173.96C269.447 173.84 269.611 173.776 269.781 173.818C269.951 173.861 270.164 173.784 270.254 173.646C270.54 173.209 270.368 172.805 269.837 172.673C269.288 172.536 269.009 171.874 269.192 171.141C269.258 170.877 269.091 170.508 268.781 170.234C268.493 169.979 268.027 169.443 267.744 169.041C267.462 168.64 267.147 168.291 267.045 168.265C266.943 168.24 266.565 167.977 266.205 167.681C265.524 167.122 265.408 166.697 265.974 166.838C266.406 166.946 266.483 166.589 266.086 166.311C265.634 165.995 264.994 165.866 264.5 165.992C264.264 166.052 263.714 166.168 263.279 166.25C262.558 166.385 262.497 166.366 262.587 166.034C262.737 165.477 263.404 165.038 263.91 165.164C264.16 165.226 264.45 165.194 264.554 165.093C264.658 164.991 265.18 165.017 265.713 165.15C266.246 165.283 266.658 165.49 266.628 165.61ZM264.504 167.618C264.44 167.876 263.945 168.045 263.828 167.85C263.71 167.654 264.092 167.297 264.35 167.361C264.463 167.389 264.532 167.505 264.504 167.618ZM276.174 177.784C276.189 177.975 276.603 178.157 277.38 178.315C278.331 178.508 278.701 178.705 279.259 179.314C279.641 179.731 279.93 180.17 279.901 180.288C279.871 180.406 279.991 180.539 280.168 180.583C280.363 180.632 280.407 180.779 280.281 180.96C280.133 181.171 280.221 181.292 280.59 181.385C280.881 181.457 281.183 181.748 281.281 182.05C281.43 182.508 281.39 182.626 281.012 182.853C280.632 183.082 280.553 183.068 280.453 182.756C280.375 182.511 279.955 182.298 279.174 182.107C278.534 181.95 277.972 181.715 277.925 181.584C277.824 181.304 276.813 181.507 276.734 181.823C276.639 182.206 276.192 181.921 275.816 181.238C275.552 180.758 275.197 180.493 274.572 180.309C274.09 180.168 273.527 180.001 273.319 179.939C272.885 179.808 272.497 179.283 272.582 178.941C272.665 178.608 273.153 178.775 273.556 179.275C274.026 179.858 275.507 180.233 275.616 179.796C275.661 179.616 275.6 179.444 275.479 179.414C275.359 179.385 275.338 179.051 275.432 178.674C275.531 178.278 275.473 177.826 275.293 177.603C275.011 177.252 275.035 177.23 275.567 177.356C275.889 177.432 276.162 177.625 276.174 177.784ZM268.462 177.027C268.902 177.454 269.49 178.321 269.449 178.484C269.435 178.54 269.083 178.488 268.666 178.367C268.25 178.246 267.93 178.065 267.955 177.965C267.98 177.864 267.853 177.745 267.673 177.7C267.493 177.655 267.382 177.471 267.427 177.291C267.472 177.111 267.41 176.939 267.29 176.909C267.17 176.879 267.096 176.756 267.126 176.636C267.202 176.331 267.98 176.559 268.462 177.027ZM284.709 184.332C285.751 185.013 285.35 185.355 283.925 185C282.809 184.721 282.75 184.674 282.878 184.159C283.037 183.524 283.55 183.573 284.709 184.332ZM274.41 194.276C274.147 194.532 273.916 194.107 274.143 193.784C274.31 193.544 274.38 193.548 274.461 193.801C274.518 193.98 274.495 194.193 274.41 194.276ZM288.078 202.374C287.827 203.382 287.17 203.188 287.116 202.09C287.094 201.638 287.171 201.582 287.651 201.702C288.1 201.813 288.185 201.948 288.078 202.374ZM302.365 228.798C302.335 228.918 302.556 229.078 302.857 229.153C303.157 229.227 303.378 229.387 303.348 229.507C303.318 229.627 302.852 229.615 302.311 229.48C301.259 229.218 301.192 229.134 301.738 228.757C302.151 228.471 302.442 228.491 302.365 228.798Z" fill="black"/>
<path d="M666 250L533.233 250C533.477 249.003 533.714 248.003 533.943 247L666 247V250Z" fill="black"/>
<path d="M420.37 130.411C420.17 130.475 420.043 130.576 420.088 130.636C420.662 131.39 421.398 132.059 421.75 132.147C421.992 132.208 422.209 132.392 422.232 132.557C422.255 132.723 422.332 132.658 422.403 132.413C422.497 132.089 422.307 131.794 421.706 131.331C421.251 130.982 420.846 130.605 420.806 130.495C420.767 130.385 420.57 130.347 420.37 130.411Z" fill="black"/>
<path d="M423.961 133.626C423.848 133.598 423.78 133.477 423.81 133.357C423.84 133.237 424.018 133.177 424.205 133.223C424.392 133.27 424.46 133.391 424.356 133.493C424.252 133.594 424.074 133.655 423.961 133.626Z" fill="black"/>
<path d="M425.857 135.846C426.143 136.231 426.497 136.576 426.644 136.614C427.074 136.723 426.871 136.061 426.347 135.644C425.544 135.005 425.304 135.104 425.857 135.846Z" fill="black"/>
<path d="M421.317 134.731C421.226 134.785 421.036 134.746 420.894 134.644C420.737 134.531 420.802 134.492 421.059 134.545C421.292 134.593 421.408 134.676 421.317 134.731Z" fill="black"/>
<path d="M445.695 167.881C445.551 168.08 445.517 168.373 445.619 168.543C445.889 168.992 446.106 168.754 446.025 168.098C445.961 167.582 445.928 167.561 445.695 167.881Z" fill="black"/>
<path d="M447.924 169.979C447.778 170.075 446.843 168.424 446.905 168.18C446.93 168.084 447.196 168.431 447.496 168.953C447.797 169.474 447.989 169.936 447.924 169.979Z" fill="black"/>
<path d="M439.853 170.411C439.808 170.591 439.87 170.763 439.99 170.793C440.11 170.823 440.172 170.995 440.127 171.175C440.082 171.355 440.192 171.539 440.372 171.584C440.811 171.693 440.853 171.415 440.502 170.724C440.16 170.052 439.966 169.958 439.853 170.411Z" fill="black"/>
<path d="M439.391 173.195C439.271 173.165 439.197 173.042 439.227 172.922C439.257 172.802 439.38 172.728 439.5 172.758C439.62 172.788 439.694 172.911 439.664 173.031C439.634 173.151 439.511 173.225 439.391 173.195Z" fill="black"/>
<path d="M411.792 179.893C411.486 180.103 411.519 180.163 412.004 180.284C412.349 180.37 412.568 180.315 412.555 180.146C412.522 179.723 412.196 179.614 411.792 179.893Z" fill="black"/>
<path d="M445.625 188.836C445.517 189.035 445.498 188.902 445.584 188.54C445.669 188.179 445.758 188.016 445.781 188.179C445.804 188.342 445.734 188.638 445.625 188.836Z" fill="black"/>
<path d="M439.579 187.558C439.205 187.595 438.7 189.492 439.042 189.577C439.175 189.61 439.265 189.479 439.241 189.285C439.217 189.091 439.379 188.657 439.6 188.319C440.037 187.651 440.033 187.513 439.579 187.558Z" fill="black"/>
<path d="M414.856 182.766C414.247 183.132 413.781 182.883 413.933 182.273C414.028 181.893 414.189 181.757 414.462 181.825C415.084 181.98 415.301 182.499 414.856 182.766Z" fill="black"/>
<path d="M416.996 182.779C416.379 183.044 416.36 183.293 416.923 183.747C417.296 184.047 417.467 184.079 417.716 183.897C417.89 183.768 417.996 183.545 417.949 183.4C417.903 183.256 418.019 183.175 418.206 183.222C418.393 183.269 418.571 183.209 418.601 183.088C418.68 182.772 417.53 182.551 416.996 182.779Z" fill="black"/>
<path d="M433.104 189.486C432.956 189.575 432.809 189.395 432.738 189.037C432.605 188.369 432.855 188.306 433.156 188.931C433.273 189.174 433.252 189.397 433.104 189.486Z" fill="black"/>
<path d="M423.986 221.064C423.575 221.517 423.638 222.142 424.164 222.823C424.386 223.111 424.522 223.53 424.466 223.755C424.306 224.394 424.636 224.531 425.1 224.018C425.332 223.761 425.653 223.584 425.813 223.624C425.978 223.665 426.163 223.459 426.24 223.15C426.352 222.699 426.271 222.578 425.769 222.453C425.295 222.335 425.143 222.144 425.078 221.585C424.982 220.768 424.473 220.525 423.986 221.064Z" fill="black"/>
<path d="M444.824 237.874C444.862 237.309 444.942 236.624 445 236.352C445.059 236.08 445.205 235.881 445.325 235.911C445.452 235.943 445.377 236.581 445.148 237.433C444.762 238.869 444.755 238.878 444.824 237.874Z" fill="black"/>
<path d="M439.371 242.68C439.251 242.852 439.103 243.206 439.042 243.468C438.936 243.923 438.951 243.923 439.38 243.475C439.626 243.218 439.862 242.885 439.904 242.736C440.012 242.349 439.631 242.309 439.371 242.68Z" fill="black"/>
<path d="M437.327 247.056C436.903 247.311 436.867 247.097 437.245 246.557C437.491 246.205 437.884 246.218 437.795 246.576C437.763 246.705 437.552 246.921 437.327 247.056Z" fill="black"/>
<path d="M435.913 249.614C435.814 249.932 435.62 250.229 435.481 250.274C435.343 250.318 435.201 250.468 435.166 250.606C435.129 250.758 435.275 250.756 435.534 250.6C435.801 250.44 435.99 250.092 436.029 249.688L436.092 249.034L435.913 249.614Z" fill="black"/>
<path d="M433.493 256.245C433.901 255.197 434.34 253.922 434.467 253.413C434.616 252.814 434.767 252.558 434.894 252.688C435.016 252.813 434.858 253.773 434.48 255.208C434.144 256.483 433.741 258.339 433.584 259.332C433.339 260.892 433.246 261.144 432.908 261.186C432.571 261.227 432.565 261.041 432.864 259.839C433.079 258.978 433.124 258.389 432.981 258.298C432.805 258.187 432.93 257.687 433.493 256.245Z" fill="black"/>
<path d="M434.262 259.48C434.286 259.677 434.391 259.86 434.494 259.886C434.597 259.912 434.662 259.771 434.638 259.574C434.614 259.376 434.509 259.194 434.406 259.168C434.303 259.142 434.238 259.283 434.262 259.48Z" fill="black"/>
<path d="M430.093 263.048C429.636 263.104 429.715 262.795 430.339 262.086C430.866 261.486 431.311 261.418 431.176 261.958C431.132 262.138 430.997 262.261 430.876 262.231C430.756 262.201 430.612 262.363 430.555 262.59C430.498 262.817 430.29 263.023 430.093 263.048Z" fill="black"/>
<path d="M297.914 98.024C297.664 98.265 297.296 98.3338 296.85 98.2226C296.414 98.1141 295.969 98.1917 295.618 98.4374C295.091 98.8059 295.084 98.8297 295.45 99.0005C295.66 99.0984 295.923 99.2996 296.035 99.4473C296.16 99.6146 296.304 99.6507 296.415 99.5428C296.512 99.4475 296.926 99.3941 297.335 99.424C299.004 99.5465 299.57 99.5356 299.609 99.3797C299.632 99.2897 299.279 99.1352 298.825 99.0366C298.049 98.8681 298.013 98.8223 298.22 98.2743C298.482 97.5801 298.423 97.532 297.914 98.024Z" fill="black"/>
<path d="M287.521 114.373C287.708 113.624 288.588 112.418 289.08 112.236C289.966 111.909 290.053 112.75 289.229 113.684C288.984 113.961 288.589 114.427 288.352 114.718C287.746 115.463 287.296 115.276 287.521 114.373Z" fill="black"/>
<path d="M288.572 123.182C287.871 123.18 286.939 123.15 286.501 123.114C286.064 123.078 285.253 123.19 284.7 123.361C283.805 123.639 283.738 123.703 284.092 123.94C284.31 124.087 284.596 124.344 284.727 124.51C284.857 124.677 285.364 124.882 285.853 124.968C286.805 125.133 287.44 125.863 287.259 126.586C287.184 126.89 287.322 126.964 288.088 127.03C288.754 127.087 289.076 127.22 289.251 127.512C289.633 128.148 290.066 127.923 290.598 126.81C291.046 125.875 291.054 125.772 290.692 125.682C290.366 125.601 290.337 125.406 290.532 124.623C290.858 123.317 290.68 123.187 288.572 123.182Z" fill="black"/>
<path d="M283.757 129.47C283.85 129.099 285.434 128.347 286.663 128.089L286.702 128.081C287.757 127.861 288.083 127.793 288.256 127.925C288.334 127.984 288.381 128.082 288.45 128.224L288.455 128.236C288.597 128.53 288.508 128.678 288.032 128.942C287.7 129.125 287.297 129.243 287.136 129.203C286.975 129.162 286.253 129.478 285.531 129.904C284.549 130.484 284.131 130.887 283.87 131.507C283.451 132.5 282.548 133.096 281.531 133.048C280.818 133.014 280.794 132.983 280.956 132.33C281.05 131.955 281.225 131.672 281.345 131.702C281.465 131.732 281.608 131.578 281.662 131.359C281.717 131.141 282.202 130.662 282.739 130.294C283.278 129.927 283.735 129.556 283.757 129.47Z" fill="black"/>
<path d="M288.696 129.197C288.627 129.473 288.651 129.833 288.748 129.995C288.961 130.349 288.068 131.472 287.52 131.539C286.936 131.61 287.028 132.02 287.636 132.054C288.281 132.09 288.283 132.108 287.762 133.01C287.554 133.371 287.45 133.733 287.531 133.816C287.705 133.995 288.787 133.484 288.861 133.188C288.889 133.076 289.332 132.74 289.846 132.442C290.36 132.144 290.884 131.653 291.011 131.353C291.155 131.008 291.167 131.155 291.04 131.749C290.907 132.375 290.943 132.764 291.145 132.906C291.754 133.332 292.669 132.019 292.534 130.915C292.483 130.505 291.477 130.136 291.388 130.495C291.28 130.926 290.782 130.558 290.435 129.791C289.98 128.783 288.892 128.412 288.696 129.197Z" fill="black"/>
<path d="M293.004 135.025C293.627 135.433 294.759 135.579 294.838 135.262C294.866 135.151 294.992 135.221 295.119 135.417C295.412 135.867 294.908 136.363 293.918 136.599C293.007 136.817 292.638 136.689 292.309 136.042C292.108 135.646 291.821 135.461 291.287 135.382C290.752 135.302 290.567 135.182 290.624 134.952C290.735 134.507 292.285 134.554 293.004 135.025Z" fill="black"/>
<path d="M287.673 135.159C287.227 135.157 286.48 135.119 286.013 135.074C285.364 135.013 285.138 135.096 285.057 135.421C284.939 135.892 285.218 136.029 287.021 136.381C287.629 136.5 288.242 136.531 288.383 136.451C288.525 136.37 288.854 136.358 289.116 136.423C289.662 136.559 290.318 136.163 290.193 135.773C290.135 135.591 289.953 135.549 289.603 135.637C289.236 135.73 289.046 135.683 288.917 135.467C288.818 135.303 288.681 135.168 288.611 135.166C288.585 135.166 288.512 135.165 288.408 135.164L288.022 135.162L287.673 135.159Z" fill="black"/>
<path d="M478.997 196.804C479.173 201.945 487.088 204.394 489.678 199.949L565.679 69.5423C567.549 66.3332 565.14 62.3236 561.429 62.4684L410.82 68.3426C405.694 68.5425 404.136 76.6147 408.573 79.1905C450.587 103.583 477.334 148.232 478.997 196.804Z" fill="black"/>
<path d="M24 269.5H604M253 283.5L634 283.5M59 297.5L351 297.5" stroke="black" stroke-width="3"/>
</svg>
